<svg width="24" height="24" viewBox="0 0 24 24" fill="none" xmlns="http://www.w3.org/2000/svg">
<g clip-path="url(#clip0_2008_1382)">
<path d="M23.7161 24.0001H0.279491C0.210917 23.9914 0.147867 23.958 0.102166 23.9061C0.0564647 23.8543 0.03125 23.7875 0.03125 23.7184C0.03125 23.6493 0.0564647 23.5825 0.102166 23.5307C0.147867 23.4788 0.210917 23.4454 0.279491 23.4367H23.7161C23.7561 23.4316 23.7967 23.4351 23.8352 23.447C23.8737 23.4588 23.9093 23.4787 23.9395 23.5054C23.9698 23.532 23.994 23.5648 24.0106 23.6015C24.0272 23.6382 24.0358 23.6781 24.0358 23.7184C24.0358 23.7587 24.0272 23.7985 24.0106 23.8353C23.994 23.872 23.9698 23.9048 23.9395 23.9314C23.9093 23.9581 23.8737 23.978 23.8352 23.9898C23.7967 24.0016 23.7561 24.0051 23.7161 24.0001Z" fill="#ADD53D"/>
<path d="M13.8005 24H1.1808C1.10628 23.9988 1.03521 23.9684 0.982933 23.9153C0.930654 23.8621 0.901358 23.7906 0.901367 23.7161V0.279437C0.901367 0.205325 0.930808 0.13425 0.983212 0.0818451C1.03562 0.0294406 1.10669 2.25651e-09 1.1808 2.25651e-09H13.8005C13.8751 -9.38761e-06 13.9466 0.0292865 13.9997 0.0815654C14.0528 0.133844 14.0833 0.204914 14.0845 0.279437V23.7161C14.0845 23.7914 14.0546 23.8636 14.0013 23.9168C13.9481 23.9701 13.8758 24 13.8005 24ZM1.46475 23.4366H13.5211V0.56338H1.46475V23.4366Z" fill="#ADD53D"/>
<path d="M22.8148 24H13.8007C13.7262 23.9988 13.6551 23.9684 13.6028 23.9153C13.5505 23.8622 13.5212 23.7906 13.5212 23.7161V5.2372C13.5212 5.16309 13.5507 5.09201 13.6031 5.03961C13.6555 4.9872 13.7266 4.95776 13.8007 4.95776H22.8148C22.8893 4.95775 22.9608 4.98705 23.014 5.03933C23.0671 5.09161 23.0975 5.16268 23.0987 5.2372V23.7161C23.0987 23.7914 23.0688 23.8636 23.0155 23.9169C22.9623 23.9701 22.8901 24 22.8148 24ZM14.0846 23.4366H22.5353V5.52114H14.0846V23.4366Z" fill="#ADD53D"/>
<path d="M6.13869 16.338H3.43447C3.35994 16.3369 3.28887 16.3064 3.23659 16.2533C3.18432 16.2002 3.15502 16.1286 3.15503 16.0541V13.3499C3.15503 13.2758 3.18447 13.2047 3.23687 13.1523C3.28928 13.0999 3.36035 13.0704 3.43447 13.0704H6.13869C6.21322 13.0704 6.28477 13.0997 6.33789 13.152C6.39102 13.2043 6.42145 13.2753 6.42264 13.3499V16.0541C6.42264 16.0914 6.41529 16.1283 6.40102 16.1628C6.38675 16.1972 6.36584 16.2285 6.33947 16.2549C6.3131 16.2812 6.2818 16.3022 6.24735 16.3164C6.2129 16.3307 6.17598 16.338 6.13869 16.338ZM3.71841 15.7747H5.85925V13.6338H3.71841V15.7747Z" fill="#ADD53D"/>
<path d="M8.84279 16.338H6.13857C6.06404 16.3369 5.99298 16.3064 5.9407 16.2533C5.88842 16.2002 5.85912 16.1286 5.85913 16.0541V13.3499C5.85913 13.2758 5.88857 13.2047 5.94098 13.1523C5.99338 13.0999 6.06446 13.0704 6.13857 13.0704H8.84279C8.91733 13.0704 8.98887 13.0997 9.04199 13.152C9.09512 13.2043 9.12555 13.2753 9.12674 13.3499V16.0541C9.12674 16.1294 9.09682 16.2016 9.04357 16.2549C8.99032 16.3081 8.9181 16.338 8.84279 16.338ZM6.42251 15.7747H8.56336V13.6338H6.42251V15.7747Z" fill="#ADD53D"/>
<path d="M11.5471 16.338H8.84291C8.76839 16.3369 8.69732 16.3064 8.64504 16.2533C8.59276 16.2002 8.56347 16.1286 8.56348 16.0541V13.3499C8.56348 13.2758 8.59292 13.2047 8.64532 13.1523C8.69773 13.0999 8.7688 13.0704 8.84291 13.0704H11.5471C11.6217 13.0704 11.6932 13.0997 11.7463 13.152C11.7995 13.2043 11.8299 13.2753 11.8311 13.3499V16.0541C11.8311 16.1294 11.8012 16.2016 11.7479 16.2549C11.6947 16.3081 11.6224 16.338 11.5471 16.338ZM9.12686 15.7747H11.2677V13.6338H9.12686V15.7747Z" fill="#ADD53D"/>
<path d="M6.13869 10.9296H3.43447C3.35994 10.9284 3.28887 10.898 3.23659 10.8449C3.18432 10.7917 3.15502 10.7202 3.15503 10.6456V7.94142C3.15503 7.86731 3.18447 7.79624 3.23687 7.74383C3.28928 7.69143 3.36035 7.66199 3.43447 7.66199H6.13869C6.21322 7.66198 6.28477 7.69127 6.33789 7.74355C6.39102 7.79583 6.42145 7.8669 6.42264 7.94142V10.6456C6.42264 10.6829 6.41529 10.7199 6.40102 10.7543C6.38675 10.7888 6.36584 10.8201 6.33947 10.8464C6.3131 10.8728 6.2818 10.8937 6.24735 10.908C6.2129 10.9222 6.17598 10.9296 6.13869 10.9296ZM3.71841 10.3662H5.85925V8.22537H3.71841V10.3662Z" fill="#ADD53D"/>
<path d="M8.84279 10.9296H6.13857C6.06404 10.9284 5.99298 10.898 5.9407 10.8449C5.88842 10.7917 5.85912 10.7202 5.85913 10.6456V7.94142C5.85913 7.86731 5.88857 7.79624 5.94098 7.74383C5.99338 7.69143 6.06446 7.66199 6.13857 7.66199H8.84279C8.91733 7.66198 8.98887 7.69127 9.04199 7.74355C9.09512 7.79583 9.12555 7.8669 9.12674 7.94142V10.6456C9.12674 10.721 9.09682 10.7932 9.04357 10.8464C8.99032 10.8997 8.9181 10.9296 8.84279 10.9296ZM6.42251 10.3662H8.56336V8.22537H6.42251V10.3662Z" fill="#ADD53D"/>
<path d="M11.5471 10.9296H8.84291C8.76839 10.9284 8.69732 10.898 8.64504 10.8449C8.59276 10.7917 8.56347 10.7202 8.56348 10.6456V7.94142C8.56348 7.86731 8.59292 7.79624 8.64532 7.74383C8.69773 7.69143 8.7688 7.66199 8.84291 7.66199H11.5471C11.6217 7.66198 11.6932 7.69127 11.7463 7.74355C11.7995 7.79583 11.8299 7.8669 11.8311 7.94142V10.6456C11.8311 10.721 11.8012 10.7932 11.7479 10.8464C11.6947 10.8997 11.6224 10.9296 11.5471 10.9296ZM9.12686 10.3662H11.2677V8.22537H9.12686V10.3662Z" fill="#ADD53D"/>
<path d="M6.13869 5.52115H3.43447C3.35994 5.51996 3.28887 5.48953 3.23659 5.4364C3.18432 5.38328 3.15502 5.31173 3.15503 5.2372V2.53298C3.15503 2.45887 3.18447 2.38779 3.23687 2.33539C3.28928 2.28298 3.36035 2.25354 3.43447 2.25354H6.13869C6.21322 2.25353 6.28477 2.28283 6.33789 2.33511C6.39102 2.38738 6.42145 2.45845 6.42264 2.53298V5.2372C6.42264 5.27449 6.41529 5.31141 6.40102 5.34586C6.38675 5.38031 6.36584 5.41161 6.33947 5.43798C6.3131 5.46435 6.2818 5.48526 6.24735 5.49953C6.2129 5.5138 6.17598 5.52115 6.13869 5.52115ZM3.71841 4.95777H5.85925V2.81692H3.71841V4.95777Z" fill="#ADD53D"/>
<path d="M8.84279 5.52115H6.13857C6.06404 5.51996 5.99298 5.48953 5.9407 5.4364C5.88842 5.38328 5.85912 5.31173 5.85913 5.2372V2.53298C5.85913 2.45887 5.88857 2.38779 5.94098 2.33539C5.99338 2.28298 6.06446 2.25354 6.13857 2.25354H8.84279C8.91733 2.25353 8.98887 2.28283 9.04199 2.33511C9.09512 2.38738 9.12555 2.45845 9.12674 2.53298V5.2372C9.12674 5.31251 9.09682 5.38473 9.04357 5.43798C8.99032 5.49123 8.9181 5.52115 8.84279 5.52115ZM6.42251 4.95777H8.56336V2.81692H6.42251V4.95777Z" fill="#ADD53D"/>
<path d="M11.5471 5.52115H8.84291C8.76839 5.51996 8.69732 5.48953 8.64504 5.4364C8.59276 5.38328 8.56347 5.31173 8.56348 5.2372V2.53298C8.56348 2.45887 8.59292 2.38779 8.64532 2.33539C8.69773 2.28298 8.7688 2.25354 8.84291 2.25354H11.5471C11.6217 2.25353 11.6932 2.28283 11.7463 2.33511C11.7995 2.38738 11.8299 2.45845 11.8311 2.53298V5.2372C11.8311 5.31251 11.8012 5.38473 11.7479 5.43798C11.6947 5.49123 11.6224 5.52115 11.5471 5.52115ZM9.12686 4.95777H11.2677V2.81692H9.12686V4.95777Z" fill="#ADD53D"/>
<path d="M11.5471 21.7465H8.84291C8.76839 21.7453 8.69732 21.7149 8.64504 21.6617C8.59276 21.6086 8.56347 21.5371 8.56348 21.4625V18.7583C8.56348 18.6842 8.59292 18.6131 8.64532 18.5607C8.69773 18.5083 8.7688 18.4789 8.84291 18.4789H11.5471C11.6217 18.4789 11.6932 18.5082 11.7463 18.5604C11.7995 18.6127 11.8299 18.6838 11.8311 18.7583V21.4625C11.8311 21.5378 11.8012 21.6101 11.7479 21.6633C11.6947 21.7166 11.6224 21.7465 11.5471 21.7465ZM9.12686 21.1831H11.2677V19.0423H9.12686V21.1831Z" fill="#ADD53D"/>
<path d="M17.857 16.338H15.1528C15.0842 16.3293 15.0212 16.2959 14.9755 16.2441C14.9298 16.1922 14.9045 16.1255 14.9045 16.0564C14.9045 15.9872 14.9298 15.9205 14.9755 15.8686C15.0212 15.8168 15.0842 15.7834 15.1528 15.7747H17.5776V13.6338H15.1528C15.0842 13.6251 15.0212 13.5917 14.9755 13.5399C14.9298 13.488 14.9045 13.4212 14.9045 13.3521C14.9045 13.283 14.9298 13.2163 14.9755 13.1644C15.0212 13.1125 15.0842 13.0791 15.1528 13.0704H17.857C17.9315 13.0704 18.0031 13.0997 18.0562 13.152C18.1093 13.2043 18.1398 13.2753 18.141 13.3499V16.0541C18.141 16.0914 18.1336 16.1283 18.1193 16.1628C18.1051 16.1972 18.0842 16.2285 18.0578 16.2549C18.0314 16.2812 18.0001 16.3022 17.9657 16.3164C17.9312 16.3307 17.8943 16.338 17.857 16.338Z" fill="#ADD53D"/>
<path d="M17.857 21.7465H15.1528C15.0842 21.7378 15.0212 21.7044 14.9755 21.6525C14.9298 21.6007 14.9045 21.5339 14.9045 21.4648C14.9045 21.3957 14.9298 21.3289 14.9755 21.2771C15.0212 21.2252 15.0842 21.1918 15.1528 21.1831H17.5776V19.0423H15.1528C15.0842 19.0336 15.0212 19.0002 14.9755 18.9483C14.9298 18.8964 14.9045 18.8297 14.9045 18.7606C14.9045 18.6914 14.9298 18.6247 14.9755 18.5728C15.0212 18.521 15.0842 18.4876 15.1528 18.4789H17.857C17.9315 18.4789 18.0031 18.5082 18.0562 18.5604C18.1093 18.6127 18.1398 18.6838 18.141 18.7583V21.4625C18.141 21.4998 18.1336 21.5368 18.1193 21.5712C18.1051 21.6057 18.0842 21.637 18.0578 21.6633C18.0314 21.6897 18.0001 21.7106 17.9657 21.7249C17.9312 21.7391 17.8943 21.7465 17.857 21.7465Z" fill="#ADD53D"/>
<path d="M20.5613 16.338H17.8571C17.7826 16.3369 17.7115 16.3064 17.6592 16.2533C17.6069 16.2002 17.5776 16.1286 17.5776 16.0541V13.3499C17.5776 13.2758 17.6071 13.2047 17.6595 13.1523C17.7119 13.0999 17.783 13.0704 17.8571 13.0704H20.5613C20.6358 13.0704 20.7074 13.0997 20.7605 13.152C20.8136 13.2043 20.8441 13.2753 20.8452 13.3499V16.0541C20.8452 16.1294 20.8153 16.2016 20.7621 16.2549C20.7088 16.3081 20.6366 16.338 20.5613 16.338ZM18.141 15.7747H20.2819V13.6338H18.141V15.7747Z" fill="#ADD53D"/>
<path d="M17.857 10.9296H15.1528C15.0842 10.9209 15.0212 10.8875 14.9755 10.8356C14.9298 10.7838 14.9045 10.717 14.9045 10.6479C14.9045 10.5788 14.9298 10.512 14.9755 10.4602C15.0212 10.4083 15.0842 10.3749 15.1528 10.3662H17.5776V8.22537H15.1528C15.0842 8.21668 15.0212 8.18327 14.9755 8.13141C14.9298 8.07955 14.9045 8.0128 14.9045 7.94368C14.9045 7.87455 14.9298 7.8078 14.9755 7.75595C15.0212 7.70409 15.0842 7.67068 15.1528 7.66199H17.857C17.9315 7.66198 18.0031 7.69127 18.0562 7.74355C18.1093 7.79583 18.1398 7.8669 18.141 7.94142V10.6456C18.141 10.6829 18.1336 10.7199 18.1193 10.7543C18.1051 10.7888 18.0842 10.8201 18.0578 10.8464C18.0314 10.8728 18.0001 10.8937 17.9657 10.908C17.9312 10.9222 17.8943 10.9296 17.857 10.9296Z" fill="#ADD53D"/>
<path d="M20.5613 10.9296H17.8571C17.7826 10.9284 17.7115 10.898 17.6592 10.8449C17.6069 10.7917 17.5776 10.7202 17.5776 10.6456V7.94142C17.5776 7.86731 17.6071 7.79624 17.6595 7.74383C17.7119 7.69143 17.783 7.66199 17.8571 7.66199H20.5613C20.6358 7.66198 20.7074 7.69127 20.7605 7.74355C20.8136 7.79583 20.8441 7.8669 20.8452 7.94142V10.6456C20.8452 10.721 20.8153 10.7932 20.7621 10.8464C20.7088 10.8997 20.6366 10.9296 20.5613 10.9296ZM18.141 10.3662H20.2819V8.22537H18.141V10.3662Z" fill="#ADD53D"/>
<path d="M20.5613 21.7465H17.8571C17.7826 21.7453 17.7115 21.7149 17.6592 21.6617C17.6069 21.6086 17.5776 21.5371 17.5776 21.4625V18.7583C17.5776 18.6842 17.6071 18.6131 17.6595 18.5607C17.7119 18.5083 17.783 18.4789 17.8571 18.4789H20.5613C20.6358 18.4789 20.7074 18.5082 20.7605 18.5604C20.8136 18.6127 20.8441 18.6838 20.8452 18.7583V21.4625C20.8452 21.5378 20.8153 21.6101 20.7621 21.6633C20.7088 21.7166 20.6366 21.7465 20.5613 21.7465ZM18.141 21.1831H20.2819V19.0423H18.141V21.1831Z" fill="#ADD53D"/>
<path d="M6.13869 21.7465H3.43447C3.35994 21.7453 3.28887 21.7149 3.23659 21.6617C3.18432 21.6086 3.15502 21.5371 3.15503 21.4625V18.7583C3.15503 18.6842 3.18447 18.6131 3.23687 18.5607C3.28928 18.5083 3.36035 18.4789 3.43447 18.4789H6.13869C6.21322 18.4789 6.28477 18.5082 6.33789 18.5604C6.39102 18.6127 6.42145 18.6838 6.42264 18.7583V21.4625C6.42264 21.4998 6.41529 21.5368 6.40102 21.5712C6.38675 21.6057 6.36584 21.637 6.33947 21.6633C6.3131 21.6897 6.2818 21.7106 6.24735 21.7249C6.2129 21.7391 6.17598 21.7465 6.13869 21.7465ZM3.71841 21.1831H5.85925V19.0423H3.71841V21.1831Z" fill="#ADD53D"/>
<path d="M8.84279 24H6.13857C6.06404 23.9988 5.99298 23.9684 5.9407 23.9153C5.88842 23.8621 5.85912 23.7906 5.85913 23.7161V18.7583C5.85913 18.6842 5.88857 18.6131 5.94098 18.5607C5.99338 18.5083 6.06446 18.4789 6.13857 18.4789H8.84279C8.91733 18.4789 8.98887 18.5082 9.04199 18.5604C9.09512 18.6127 9.12555 18.6838 9.12674 18.7583V23.7161C9.12674 23.7914 9.09682 23.8636 9.04357 23.9168C8.99032 23.9701 8.9181 24 8.84279 24ZM6.42251 23.4366H8.56336V19.0423H6.42251V23.4366Z" fill="#ADD53D"/>
<path d="M14.2513 0.563437H0.730175C0.6616 0.554745 0.598551 0.521338 0.55285 0.469478C0.507148 0.417619 0.481934 0.35087 0.481934 0.281746C0.481934 0.212623 0.507148 0.145874 0.55285 0.0940146C0.598551 0.0421552 0.6616 0.00874768 0.730175 5.62789e-05H14.2513C14.2913 -0.00501127 14.3319 -0.00150924 14.3704 0.0103295C14.4089 0.0221683 14.4445 0.0420725 14.4747 0.0687189C14.505 0.0953652 14.5292 0.128143 14.5458 0.164873C14.5624 0.201603 14.5709 0.241444 14.5709 0.281746C14.5709 0.322049 14.5624 0.36189 14.5458 0.39862C14.5292 0.43535 14.505 0.468128 14.4747 0.494774C14.4445 0.52142 14.4089 0.541325 14.3704 0.553163C14.3319 0.565002 14.2913 0.568504 14.2513 0.563437Z" fill="#ADD53D"/>
<path d="M23.2655 5.5212H13.8007C13.7322 5.51251 13.6691 5.4791 13.6234 5.42724C13.5777 5.37538 13.5525 5.30863 13.5525 5.23951C13.5525 5.17039 13.5777 5.10364 13.6234 5.05178C13.6691 4.99992 13.7322 4.96651 13.8007 4.95782H23.2655C23.3055 4.95275 23.3461 4.95625 23.3846 4.96809C23.4232 4.97993 23.4587 4.99984 23.489 5.02648C23.5192 5.05313 23.5434 5.08591 23.56 5.12264C23.5766 5.15937 23.5852 5.19921 23.5852 5.23951C23.5852 5.27981 23.5766 5.31965 23.56 5.35638C23.5434 5.39311 23.5192 5.42589 23.489 5.45254C23.4587 5.47918 23.4232 5.49909 23.3846 5.51093C23.3461 5.52277 23.3055 5.52627 23.2655 5.5212Z" fill="#ADD53D"/>
</g>
<defs>
<clipPath id="clip0_2008_1382">
<rect width="24" height="24" fill="white"/>
</clipPath>
</defs>
</svg>
