<svg width="22" height="17" viewBox="0 0 22 17" fill="none" xmlns="http://www.w3.org/2000/svg">
<path d="M22 13.7958C21.8742 13.9952 21.6937 14.0579 21.4574 14.0548C20.6226 14.0439 19.7842 14.0512 18.9479 14.0501C18.6057 14.0501 18.469 13.9165 18.4622 13.5751C18.4575 13.355 18.4549 13.1343 18.4648 12.9147C18.4768 12.6433 18.6213 12.4874 18.8957 12.4848C19.7827 12.477 20.6696 12.4703 21.5565 12.4926C21.7068 12.4967 21.8529 12.648 22.001 12.7277L22 13.7958Z" fill="#ADD53D"/>
<path d="M1.15457 6.63682H0V5.07615H0.285904C3.93275 5.07615 7.57924 5.07771 11.2254 5.08081C11.4195 5.08081 11.5155 5.02591 11.5937 4.84928C11.8833 4.193 12.1916 3.54501 12.489 2.89184C12.5333 2.79498 12.5746 2.73645 12.7029 2.73645C15.5689 2.74128 18.4345 2.74267 21.2998 2.74059C21.3308 2.74327 21.3617 2.74759 21.3922 2.75354C21.327 2.84885 21.2712 2.93535 21.2106 3.01823C20.9383 3.39221 20.6597 3.76256 20.3931 4.1412C20.3584 4.19747 20.3087 4.24312 20.2495 4.2731C20.1903 4.30308 20.1239 4.31623 20.0576 4.3111C17.9227 4.30592 15.7878 4.30471 13.653 4.30747H13.3561V4.57993C13.3561 6.57828 13.3573 8.57681 13.3598 10.5755C13.3598 10.7309 13.3206 10.8081 13.1698 10.8754C12.5151 11.1655 12.0993 11.6923 11.8066 12.3201C11.6636 12.6272 11.5582 12.951 11.4299 13.2825C10.4986 13.2825 9.5517 13.2825 8.60842 13.2773C8.57453 13.2706 8.54269 13.2562 8.5155 13.235C8.4883 13.2139 8.46652 13.1866 8.45191 13.1556C8.15922 12.3169 7.56237 11.7228 6.85961 11.2235C5.58608 10.3191 4.14665 9.7799 2.65139 9.35878C2.21158 9.23499 1.76864 9.12103 1.32257 9.02469C1.17544 8.99257 1.14153 8.93819 1.14362 8.80144C1.15301 8.16847 1.15353 7.5355 1.15666 6.90254C1.15509 6.82277 1.15457 6.74559 1.15457 6.63682Z" fill="#ADD53D"/>
<path d="M21.5994 11.7099H21.1204C20.4328 11.7099 19.7452 11.7125 19.057 11.7099C18.673 11.7099 18.3162 11.7757 18.0136 12.0808C17.0745 10.6921 15.6658 10.5325 14.1528 10.6532V5.08808C14.218 5.08342 14.2864 5.07462 14.3542 5.07462C16.1526 5.07462 17.951 5.07462 19.7494 5.07047C19.8121 5.06616 19.8747 5.08001 19.9296 5.11036C19.9845 5.1407 20.0294 5.18623 20.0587 5.24141C20.5434 5.98781 21.0364 6.72904 21.5196 7.47544C21.5716 7.54981 21.6022 7.63683 21.6083 7.72718C21.614 9.02212 21.6119 10.3171 21.6114 11.612C21.6098 11.6317 21.6046 11.6545 21.5994 11.7099ZM20.4145 9.35466C20.4145 8.72584 20.4876 8.10426 20.3879 7.5117C20.3264 7.14911 20.0003 6.83004 19.7927 6.49128C19.7702 6.45503 19.7551 6.40685 19.7222 6.38769C19.6414 6.33589 19.5537 6.25612 19.4671 6.25405C18.9094 6.24214 18.3511 6.24784 17.7934 6.24784H17.302V9.3557L20.4145 9.35466Z" fill="#ADD53D"/>
<path d="M1.40283 4.25414C1.81186 3.89156 2.21515 3.5181 2.63566 3.16639C2.70714 3.10734 2.85635 3.11459 2.96383 3.12858C3.3619 3.18659 3.65772 3.0571 3.8998 2.73285C4.0858 2.49785 4.29252 2.27979 4.51752 2.08123C4.60493 2.00531 4.71475 1.95952 4.83055 1.9507C5.12324 1.93309 5.41801 1.95588 5.7107 1.93827C5.81845 1.93001 5.91942 1.88284 5.99451 1.80567C6.46824 1.25299 6.92631 0.687873 7.39795 0.134156C7.45997 0.0638175 7.5464 0.019249 7.64003 0.00932358C8.05532 -0.00310786 8.47078 -0.00310786 8.88642 0.00932358C8.93202 0.0148603 8.97603 0.0294542 9.01583 0.0522356C9.05562 0.075017 9.0904 0.10552 9.11807 0.141926C9.40606 0.556307 9.68414 0.980012 9.957 1.40527C9.98226 1.45507 10.0221 1.49614 10.0712 1.52313C10.1204 1.55011 10.1766 1.56175 10.2325 1.55652C10.5184 1.54668 10.8064 1.54461 11.0917 1.55963C11.1617 1.56325 11.2274 1.64406 11.2947 1.69016C11.2999 1.69327 11.3004 1.70311 11.303 1.70932C11.4147 1.98541 11.6161 2.26304 11.6129 2.53809C11.6098 2.80329 11.3964 3.06642 11.2717 3.32852C11.147 3.59062 11.0109 3.8496 10.8935 4.11688C10.8298 4.26243 10.7427 4.3075 10.5841 4.30698C8.59947 4.3018 6.61484 4.30059 4.63021 4.30335H1.41744L1.40283 4.25414Z" fill="#ADD53D"/>
<path d="M4.82383 17C3.29727 17 2.0587 15.7672 2.06965 14.263C2.06934 13.7212 2.23096 13.1914 2.53405 12.7407C2.83714 12.2901 3.26807 11.9388 3.77231 11.7315C4.27655 11.5241 4.83142 11.4699 5.3667 11.5757C5.90199 11.6815 6.39362 11.9426 6.77937 12.326C7.16512 12.7093 7.42765 13.1977 7.53374 13.7292C7.63983 14.2607 7.5847 14.8116 7.37533 15.312C7.16596 15.8124 6.81177 16.2399 6.35758 16.5404C5.90339 16.8409 5.36962 17.0009 4.82383 17ZM3.93012 14.263C3.92967 14.3802 3.95248 14.4964 3.99724 14.6048C4.04201 14.7133 4.10785 14.8119 4.19101 14.8951C4.35895 15.0631 4.58724 15.158 4.82565 15.1589C5.06406 15.1598 5.29307 15.0666 5.46228 14.8999C5.6315 14.7331 5.72707 14.5065 5.72797 14.2698C5.72557 14.0333 5.63046 13.8071 5.46283 13.6391C5.29519 13.4711 5.06822 13.3746 4.83009 13.3701C4.592 13.3717 4.36411 13.4663 4.1957 13.6334C4.0273 13.8005 3.93189 14.0267 3.93012 14.263Z" fill="#ADD53D"/>
<path d="M17.7974 14.263C17.7998 14.9882 17.5119 15.6847 16.997 16.1991C16.4822 16.7136 15.7826 17.0039 15.0521 17.0062C14.3217 17.0086 13.6202 16.7227 13.102 16.2116C12.5839 15.7004 12.2914 15.0059 12.2891 14.2807C12.2818 12.7946 13.5167 11.5457 15.0021 11.5354C15.3664 11.5308 15.728 11.5979 16.0661 11.7327C16.4042 11.8676 16.7121 12.0676 16.972 12.3212C17.2319 12.5747 17.4386 12.8769 17.5803 13.2102C17.7219 13.5435 17.7957 13.9013 17.7974 14.263ZM15.9448 14.2817C15.946 14.1629 15.9236 14.045 15.8788 13.9348C15.834 13.8246 15.7677 13.7243 15.6838 13.6396C15.5998 13.555 15.4998 13.4876 15.3895 13.4414C15.2792 13.3953 15.1609 13.3712 15.0412 13.3706C14.803 13.3764 14.5763 13.4736 14.4086 13.6417C14.2409 13.8098 14.1453 14.0358 14.1417 14.2724C14.1432 14.509 14.2387 14.7354 14.4074 14.9025C14.5761 15.0696 14.8044 15.1639 15.0427 15.1648C15.1606 15.1664 15.2776 15.1447 15.3869 15.1011C15.4963 15.0574 15.5958 14.9926 15.6797 14.9105C15.7636 14.8283 15.8303 14.7304 15.8758 14.6225C15.9213 14.5145 15.9447 14.3987 15.9448 14.2817Z" fill="#ADD53D"/>
</svg>
