<?xml version="1.0" encoding="UTF-8"?>
<svg id="Capa_2" data-name="Capa 2" xmlns="http://www.w3.org/2000/svg" viewBox="0 0 211.13 211.1">
  <defs>
    <style>
      .cls-1 {
        fill: #000;
        stroke-width: 0px;
      }
    </style>
  </defs>
  <g id="Capa_1-2" data-name="Capa 1">
    <path class="cls-1" d="M211.13,98.12v14.84c-.13.59-.31,1.17-.39,1.77-.61,4.2-.88,8.48-1.84,12.6-7.88,34.13-27.64,58.86-59.17,74.1-4.71,2.28-9.75,3.88-14.9,5.89v-78.61h22.63c1.14-8.84,2.25-17.38,3.39-26.16h-25.8c-.16-.39-.31-.57-.3-.75.05-6.66-.09-13.33.23-19.98.22-4.59,2.92-7.52,7.43-8.41,2.73-.54,5.58-.59,8.38-.68,3.55-.11,7.11-.03,10.77-.03v-23.29c-.4-.11-.78-.3-1.17-.32-7.06-.3-14.13-.79-21.19-.79-5.02,0-9.94,1.15-14.49,3.42-11.39,5.68-16.26,15.51-16.99,27.65-.41,6.92-.12,13.87-.15,20.81,0,.73-.06,1.47-.1,2.4h-22.44v26.28h22.37v82.15c-8.17.32-16.08-.5-23.87-2.23-24.84-5.49-45.32-18.14-60.98-38.19C4.16,147.1-2.85,120.31,1.04,90.82c2.66-20.21,10.83-38.15,24.13-53.63C41.63,18.02,62.3,6.05,87.24,1.61,90.73.99,94.25.53,97.75,0c5.08,0,10.17,0,15.25,0,2.44.31,4.89.58,7.32.94,17.33,2.54,33.21,8.77,47.3,19.21,22.67,16.78,36.71,39.05,41.86,66.83.68,3.69,1.1,7.43,1.64,11.15Z"/>
  </g>
</svg>