<svg xmlns="http://www.w3.org/2000/svg" viewBox="0 0 53.25 53.25"><defs><style>.cls-1{fill:#fff;}</style></defs><g id="Слой_2" data-name="Слой 2"><g id="Layer_1" data-name="Layer 1"><path class="cls-1" d="M42.86,12.5A4.48,4.48,0,1,1,47.33,8,4.48,4.48,0,0,1,42.86,12.5Zm0-7.71A3.23,3.23,0,1,0,46.08,8,3.23,3.23,0,0,0,42.86,4.79Z"/><path class="cls-1" d="M51.62,44.14H35a.63.63,0,0,1,0-1.25H51.62a.37.37,0,0,0,.37-.44L50.4,34.32a.62.62,0,0,1,.49-.73.61.61,0,0,1,.73.49l1.59,8.13a1.58,1.58,0,0,1-.34,1.34A1.61,1.61,0,0,1,51.62,44.14Z"/><path class="cls-1" d="M50.07,35a2.22,2.22,0,0,1-2.18-1.79l-1.71-8.45a.63.63,0,1,1,1.23-.25L49.12,33a1,1,0,0,0,1.14.76A2.18,2.18,0,0,0,52,31.17L49.2,17.51a2.69,2.69,0,0,0-2.63-2.15H42.86a.63.63,0,0,1,0-1.25h3.71a4,4,0,0,1,3.85,3.15l2.76,13.66a3.41,3.41,0,0,1-2.67,4A2.2,2.2,0,0,1,50.07,35Z"/><path class="cls-1" d="M40.58,53.25a2.68,2.68,0,0,1-2.9-2.63v-7.1a.63.63,0,1,1,1.25,0v7.1c0,1.9,3.31,1.9,3.31,0v-7.1a.63.63,0,1,1,1.25,0v7.1A2.68,2.68,0,0,1,40.58,53.25Z"/><path class="cls-1" d="M45.14,53.25a2.68,2.68,0,0,1-2.9-2.63v-7.1a.63.63,0,1,1,1.25,0v7.1c0,1.91,3.3,1.9,3.3,0v-7.1a.63.63,0,1,1,1.25,0v7.1A2.68,2.68,0,0,1,45.14,53.25Z"/><path class="cls-1" d="M35.91,18h-.12a.62.62,0,0,1-.49-.73,4,4,0,0,1,3.86-3.16h3.7a.63.63,0,1,1,0,1.25h-3.7a2.7,2.7,0,0,0-2.64,2.15A.62.62,0,0,1,35.91,18Z"/><path class="cls-1" d="M35.61,19.52h-.13a.63.63,0,0,1-.49-.74l.31-1.5a.63.63,0,0,1,.74-.49.61.61,0,0,1,.48.73L36.22,19A.62.62,0,0,1,35.61,19.52Z"/><path class="cls-1" d="M13.62,53.25h-.5A3.13,3.13,0,0,1,10,50.12a.63.63,0,0,1,1.25,0A1.88,1.88,0,0,0,13.12,52h.5a1.88,1.88,0,0,0,1.88-1.88v-20a.63.63,0,0,1,1.25,0v20A3.13,3.13,0,0,1,13.62,53.25Z"/><path class="cls-1" d="M8.12,53.25h-.5A3.13,3.13,0,0,1,4.5,50.12v-20a.63.63,0,0,1,1.25,0v20A1.88,1.88,0,0,0,7.62,52h.5A1.88,1.88,0,0,0,10,50.12v-17a.63.63,0,1,1,1.25,0v17A3.13,3.13,0,0,1,8.12,53.25Z"/><path class="cls-1" d="M10.62,9.25a4.63,4.63,0,1,1,4.63-4.63A4.63,4.63,0,0,1,10.62,9.25Zm0-8A3.38,3.38,0,1,0,14,4.62,3.37,3.37,0,0,0,10.62,1.25Z"/><path class="cls-1" d="M16.12,30.75a.63.63,0,0,1-.62-.63V17.62a.63.63,0,0,1,1.25,0v12.5A.63.63,0,0,1,16.12,30.75Z"/><path class="cls-1" d="M3.62,32.25A3.63,3.63,0,0,1,0,28.62v-11A6.63,6.63,0,0,1,6.62,11h8a6.63,6.63,0,0,1,6.63,6.62v1.1a.63.63,0,1,1-1.25,0v-1.1a5.38,5.38,0,0,0-5.38-5.37h-8a5.38,5.38,0,0,0-5.37,5.37v11A2.38,2.38,0,0,0,3.62,31a.87.87,0,0,0,.88-.88V17.62a.63.63,0,0,1,1.25,0v12.5A2.13,2.13,0,0,1,3.62,32.25Z"/><path class="cls-1" d="M16.12,30.73h-11a.63.63,0,0,1,0-1.25h11a.63.63,0,1,1,0,1.25Z"/><path class="cls-1" d="M30,53.25H29.6a2.59,2.59,0,0,1-2.6-2.6.63.63,0,0,1,1.25,0A1.34,1.34,0,0,0,29.6,52H30a1.35,1.35,0,0,0,1.35-1.35V34.87a.63.63,0,0,1,1.25,0V50.65A2.6,2.6,0,0,1,30,53.25Z"/><path class="cls-1" d="M25.65,53.25h-.39a2.6,2.6,0,0,1-2.6-2.6V34.87a.63.63,0,0,1,1.25,0V50.65A1.35,1.35,0,0,0,25.26,52h.39A1.34,1.34,0,0,0,27,50.65V37.24a.63.63,0,1,1,1.25,0V50.65A2.59,2.59,0,0,1,25.65,53.25Z"/><path class="cls-1" d="M27.62,18.56a3.78,3.78,0,1,1,3.78-3.78A3.78,3.78,0,0,1,27.62,18.56Zm0-6.31a2.53,2.53,0,1,0,2.53,2.53A2.52,2.52,0,0,0,27.62,12.25Z"/><path class="cls-1" d="M33,36.69A1.67,1.67,0,0,1,31.34,35V25a.63.63,0,1,1,1.25,0V35a.42.42,0,0,0,.42.42,1.87,1.87,0,0,0,1.87-1.87V25a4.11,4.11,0,0,0-4.1-4.11H24.47A4.11,4.11,0,0,0,20.37,25v8.54a1.87,1.87,0,0,0,1.87,1.87.42.42,0,0,0,.42-.42V25a.63.63,0,1,1,1.25,0V35a1.67,1.67,0,0,1-1.67,1.67,3.12,3.12,0,0,1-3.12-3.12V25a5.36,5.36,0,0,1,5.35-5.36h6.31A5.36,5.36,0,0,1,36.13,25v8.54A3.12,3.12,0,0,1,33,36.69Z"/><path class="cls-1" d="M32,35.5H23.29a.63.63,0,1,1,0-1.25H32a.63.63,0,1,1,0,1.25Z"/></g></g></svg>