<svg width="18" height="9" viewBox="0 0 18 9" fill="none" xmlns="http://www.w3.org/2000/svg">
<g clip-path="url(#clip0_2001_749)">
<path d="M0.929863 0.891249C1.02609 0.641443 1.13843 0.406512 1.36356 0.235017C1.75877 -0.0681622 2.34285 -0.0804119 2.73806 0.223205C2.81994 0.286957 2.89781 0.355475 2.97125 0.428386C4.93699 2.34896 6.90229 4.2704 8.86714 6.19273C8.90516 6.23516 8.94044 6.27987 8.97277 6.3266L9.0408 6.34935C9.06704 6.29318 9.1001 6.2403 9.13927 6.19185C11.1146 4.25815 13.0904 2.32533 15.0669 0.393387C15.4201 0.047772 15.8233 -0.0917866 16.3125 0.0604592C17.0251 0.281828 17.312 1.18787 16.8496 1.7636C16.7938 1.83206 16.734 1.89735 16.6706 1.95916C14.4047 4.17576 12.1383 6.3912 9.8715 8.60547C9.43645 9.03027 8.91548 9.11646 8.42762 8.83953C8.32016 8.77516 8.22162 8.69752 8.13446 8.60853C5.86317 6.39193 3.59218 4.17387 1.32149 1.95434C1.1449 1.77456 1.01117 1.55883 0.929863 1.32261L0.929863 0.891249Z" fill="white"/>
</g>
<defs>
<clipPath id="clip0_2001_749">
<rect width="16.1444" height="9" fill="white" transform="translate(0.929863)"/>
</clipPath>
</defs>
</svg>
