<?xml version="1.0" encoding="UTF-8"?>
<svg id="Capa_2" data-name="Capa 2" xmlns="http://www.w3.org/2000/svg" viewBox="0 0 211.13 211.18">
  <defs>
    <style>
      .cls-1 {
        fill: #000;
        stroke-width: 0px;
      }
    </style>
  </defs>
  <g id="Capa_1-2" data-name="Capa 1">
    <g>
      <path class="cls-1" d="M97.76,0c5.08,0,10.17,0,15.25,0,3.32.44,6.66.77,9.96,1.34,19.35,3.35,36.59,11.28,51.43,24.18,18.84,16.37,30.64,36.84,35.09,61.46.67,3.69,1.1,7.43,1.64,11.15v14.84c-.14.66-.31,1.32-.41,1.99-.47,3.46-.72,6.97-1.41,10.39-5.17,25.84-17.94,47.19-38.78,63.33-25.9,20.06-55.22,26.67-87.25,20.01-24.93-5.18-45.29-18.2-60.9-38.26C4.11,146.96-2.84,120.21,1.04,90.8c2.67-20.2,10.85-38.14,24.14-53.61C41.65,18.02,62.32,6.06,87.24,1.61,90.73.98,94.25.53,97.76,0ZM45.39,105.56c-.11,0-.23,0-.34,0,0,5.15-.15,10.31.04,15.46.21,5.69.26,11.44,1.21,17.02,2.18,12.83,9.45,21.61,22.03,25.7,5.9,1.92,12.01,2.18,18.11,2.15,16.27-.08,32.57.16,48.8-.72,12.25-.66,21.63-6.95,27.03-18.36,2.29-4.84,3.34-10.06,3.44-15.35.26-14.22.38-28.44.32-42.65-.02-5.2-.28-10.47-1.14-15.58-2.16-12.93-9.4-21.78-22.07-25.89-5.83-1.89-11.87-2.17-17.91-2.14-16.34.09-32.68.15-49.01.64-6.52.2-12.57,2.64-17.82,6.73-8.95,6.97-12.27,16.62-12.65,27.45-.3,8.51-.06,17.03-.06,25.55Z"/>
      <path class="cls-1" d="M55.55,105.5c.33-9.46.46-18.88,1.04-28.26.72-11.73,8.94-20.21,20.64-20.65,15.3-.57,30.62-.58,45.93-.58,4.91,0,9.93.28,14.71,1.32,10,2.17,16.33,9.54,16.69,19.79.53,15.16.59,30.35.59,45.52,0,5.05-.26,10.21-1.32,15.12-2.15,9.99-9.58,16.39-19.77,16.74-15.3.53-30.62.58-45.93.58-4.98,0-10.06-.3-14.91-1.35-9.87-2.13-16.02-9.53-16.62-19.67-.57-9.52-.72-19.07-1.05-28.57ZM105.6,136.55c17.24,0,30.98-13.73,30.99-30.97.02-17.25-13.68-31-30.91-31.04-17.34-.04-31.12,13.73-31.1,31.07.03,17.23,13.78,30.95,31.02,30.94ZM137.9,80.41c3.93.02,7.22-3.2,7.27-7.13.05-3.99-3.3-7.35-7.29-7.32-3.93.03-7.16,3.3-7.15,7.24,0,3.94,3.23,7.19,7.17,7.21Z"/>
      <path class="cls-1" d="M105.62,125.74c-11.29,0-20.24-8.97-20.23-20.28.01-11.16,8.99-20.12,20.17-20.12,11.3,0,20.24,8.96,20.22,20.27-.01,11.17-8.98,20.12-20.17,20.12Z"/>
    </g>
  </g>
</svg>