<?xml version="1.0" encoding="UTF-8"?>
<svg id="Capa_2" data-name="Capa 2" xmlns="http://www.w3.org/2000/svg" viewBox="0 0 19.83 8.09">
  <g id="Capa_1-2" data-name="Capa 1">
    <g>
      <path fill="#fff" stroke-width="0px" d="M1.86,8.09h-.75s-.04-.02-.05-.02c-.52-.08-.9-.43-1.02-.95-.01-.05-.02-.09-.03-.14V1.1s.02-.09.03-.14C.17.38.65,0,1.26,0,2.4,0,3.55,0,4.69,0c.11,0,.21,0,.32.02.41.06.71.28.9.63-1.23,1.7-2.46,3.39-3.69,5.08-.59-.42-1.24-.72-1.94-.95.02.04.03.07.05.09.52.92.97,1.88,1.38,2.85.05.12.11.25.16.37"/>
      <path fill="#fff" stroke-width="0px" d="M2.45,8.09c.21-.46.41-.93.63-1.39.82-1.76,1.77-3.44,2.73-5.12.07-.13.15-.26.24-.38v.1c0,1.84,0,3.67,0,5.51,0,.74-.54,1.22-1.06,1.27-.02,0-.03.01-.04.02h-2.49Z"/>
      <rect fill="#fff" stroke-width="0px" x="8.53" y="1" width=".43" height="1.84"/>
      <path fill="#fff" stroke-width="0px" d="M10.6,1.4l-.37.12c-.05-.15-.15-.22-.31-.22-.17,0-.26.06-.26.17,0,.04.02.08.05.11.03.03.1.06.22.08.19.04.33.08.41.11.09.04.16.1.22.19.06.09.09.18.09.29,0,.17-.06.31-.19.43-.13.12-.32.18-.57.18-.19,0-.35-.04-.48-.13-.13-.09-.22-.21-.26-.38l.4-.09c.05.17.17.26.37.26.1,0,.17-.02.22-.06s.07-.08.07-.14-.02-.1-.07-.13c-.04-.03-.13-.06-.25-.08-.23-.05-.4-.12-.5-.2-.1-.08-.15-.21-.15-.37s.06-.3.18-.41c.12-.11.28-.17.48-.17.36,0,.59.14.7.43"/>
      <path fill="#fff" stroke-width="0px" d="M11.63,2.87c-.25,0-.44-.09-.58-.28-.14-.19-.2-.41-.2-.68s.07-.49.21-.67c.14-.18.33-.27.59-.27s.45.1.58.29.2.41.2.66c0,.27-.07.49-.2.68-.13.18-.33.28-.59.28M11.64,1.32c-.23,0-.34.2-.34.6s.11.6.34.6.33-.2.33-.6-.11-.6-.33-.6"/>
      <path fill="#fff" stroke-width="0px" d="M16.63,2.85c-.21,0-.37-.08-.49-.25-.12-.17-.17-.37-.17-.63s.06-.46.17-.62c.11-.17.28-.25.49-.25s.38.08.49.25c.11.17.17.38.17.62s-.06.46-.17.63c-.12.17-.28.25-.5.25M16.64,1.39c-.09,0-.16.04-.2.13-.04.09-.06.24-.06.46s.02.37.06.46c.04.09.1.13.19.13s.15-.04.19-.13c.04-.08.06-.23.06-.44,0-.23-.02-.39-.06-.48-.04-.08-.1-.13-.19-.13"/>
      <path fill="#fff" stroke-width="0px" d="M18.13,2.85c-.21,0-.37-.08-.49-.25-.12-.17-.17-.37-.17-.63s.06-.46.17-.62c.11-.17.28-.25.49-.25s.38.08.49.25c.11.17.17.38.17.62s-.06.46-.17.63c-.12.17-.28.25-.5.25M18.13,1.39c-.09,0-.16.04-.2.13-.04.09-.06.24-.06.46s.02.37.06.46c.04.09.1.13.19.13s.15-.04.19-.13c.04-.08.06-.23.06-.44,0-.23-.02-.39-.06-.48-.04-.08-.1-.13-.19-.13"/>
      <path fill="#fff" stroke-width="0px" d="M19.38,2.85v-1.25c-.19.11-.34.19-.44.24v-.33c.27-.08.45-.31.54-.44h.27v1.78"/>
      <path fill="#fff" stroke-width="0px" d="M13.89,2.85v-1.25c-.19.11-.34.19-.44.24v-.33c.27-.08.45-.31.54-.44h.27v1.78"/>
      <path fill="#fff" stroke-width="0px" d="M15.56,1.1v1.05h.24v.3h-.24v.4h-.4v-.4h-.75v-.3l.7-1.05h.46ZM14.71,2.15h.47v-.58s0-.05,0-.08v-.07s-.47.74-.47.74Z"/>
      <rect fill="#fff" stroke-width="0px" x="8.54" y="4.12" width="11.21" height=".15"/>
      <polygon fill="#fff" stroke-width="0px" points="8.98 6.29 8.47 6.29 8.47 5.31 8.59 5.31 8.59 6.19 8.98 6.19 8.98 6.29"/>
      <polygon fill="#fff" stroke-width="0px" points="9.65 6.29 9.14 6.29 9.14 5.31 9.25 5.31 9.25 6.19 9.65 6.19 9.65 6.29"/>
      <rect fill="#fff" stroke-width="0px" x="9.77" y="5.86" width=".38" height=".09"/>
      <path fill="#fff" stroke-width="0px" d="M11.04,6.25c-.07.04-.16.06-.27.06-.14,0-.25-.05-.34-.14-.08-.09-.13-.21-.13-.36,0-.16.05-.29.14-.38.1-.1.22-.15.36-.15.09,0,.17.01.23.04v.12c-.07-.04-.15-.06-.23-.06-.11,0-.21.04-.28.11-.07.08-.11.18-.11.3s.03.22.1.29.15.11.26.11c.1,0,.19-.02.26-.07v.11Z"/>
      <path fill="#fff" stroke-width="0px" d="M11.91,6.52h-.1c-.14-.16-.21-.36-.21-.6s.07-.44.21-.61h.1c-.14.17-.22.38-.22.61s.07.43.22.6"/>
      <path fill="#fff" stroke-width="0px" d="M12.73,6.25c-.07.04-.16.06-.27.06-.14,0-.25-.05-.34-.14-.08-.09-.13-.21-.13-.36,0-.16.05-.29.14-.38.1-.1.22-.15.36-.15.09,0,.17.01.23.04v.12c-.07-.04-.15-.06-.23-.06-.11,0-.21.04-.28.11-.07.08-.11.18-.11.3s.03.22.1.29.15.11.26.11c.1,0,.19-.02.26-.07v.11Z"/>
      <path fill="#fff" stroke-width="0px" d="M13.48,5.97h-.5c0,.08.02.14.06.18.04.04.1.06.17.06.08,0,.15-.03.22-.08v.11c-.06.05-.14.07-.25.07s-.18-.03-.24-.1c-.06-.06-.09-.15-.09-.27,0-.11.03-.2.09-.27.06-.07.14-.1.23-.1s.16.03.21.09c.05.06.08.14.08.25v.06ZM13.37,5.87c0-.07-.02-.12-.05-.15-.03-.04-.07-.05-.13-.05s-.1.02-.14.06c-.04.04-.06.09-.07.15h.38Z"/>
      <path fill="#fff" stroke-width="0px" d="M14.02,5.7s-.05-.02-.09-.02c-.05,0-.09.02-.12.07s-.05.11-.05.19v.36h-.11v-.71h.11v.15h0s.04-.09.07-.12c.03-.03.07-.04.11-.04.03,0,.05,0,.07,0v.12Z"/>
      <path fill="#fff" stroke-width="0px" d="M14.51,6.29s-.06.02-.11.02c-.12,0-.19-.07-.19-.21v-.42h-.12v-.1h.12v-.17l.11-.04v.21h.18v.1h-.18v.4s0,.08.02.1c.02.02.04.03.08.03.03,0,.05,0,.07-.02v.1Z"/>
      <path fill="#fff" stroke-width="0px" d="M14.72,5.41s-.04,0-.05-.02c-.01-.01-.02-.03-.02-.05s0-.04.02-.05c.01-.01.03-.02.05-.02s.04,0,.05.02c.01.01.02.03.02.05s0,.04-.02.05c-.01.01-.03.02-.05.02M14.78,6.29h-.11v-.71h.11v.71Z"/>
      <path fill="#fff" stroke-width="0px" d="M15.36,5.35s-.05-.02-.08-.02c-.08,0-.12.05-.12.15v.11h.17v.1h-.17v.61h-.11v-.61h-.12v-.1h.12v-.11c0-.07.02-.13.06-.18.04-.04.1-.06.16-.06.03,0,.06,0,.08.01v.1Z"/>
      <path fill="#fff" stroke-width="0px" d="M15.51,5.41s-.04,0-.05-.02c-.01-.01-.02-.03-.02-.05s0-.04.02-.05c.01-.01.03-.02.05-.02s.04,0,.05.02c.01.01.02.03.02.05s0,.04-.02.05c-.01.01-.03.02-.05.02M15.56,6.29h-.11v-.71h.11v.71Z"/>
      <path fill="#fff" stroke-width="0px" d="M16.27,6.26c-.05.03-.12.05-.19.05-.1,0-.18-.03-.24-.1-.06-.07-.09-.15-.09-.25,0-.12.03-.21.1-.28.07-.07.16-.11.27-.11.06,0,.12.01.16.03v.12c-.05-.04-.11-.06-.17-.06-.07,0-.13.03-.18.08-.05.05-.07.12-.07.2s.02.15.07.2.1.07.17.07c.06,0,.12-.02.17-.06v.11Z"/>
      <path fill="#fff" stroke-width="0px" d="M16.95,6.29h-.11v-.11h0c-.05.08-.12.13-.22.13-.07,0-.13-.02-.17-.06-.04-.04-.06-.09-.06-.15,0-.13.08-.21.23-.23l.21-.03c0-.12-.05-.18-.15-.18-.09,0-.16.03-.23.09v-.12c.07-.04.15-.07.24-.07.17,0,.25.09.25.26v.46ZM16.84,5.94l-.17.02c-.05,0-.09.02-.12.04-.03.02-.04.05-.04.1,0,.03.01.06.04.08.02.02.06.03.1.03.06,0,.1-.02.14-.06.04-.04.05-.09.05-.15v-.07Z"/>
      <path fill="#fff" stroke-width="0px" d="M17.49,6.29s-.06.02-.11.02c-.12,0-.19-.07-.19-.21v-.42h-.12v-.1h.12v-.17l.11-.04v.21h.18v.1h-.18v.4s0,.08.02.1c.02.02.04.03.08.03.03,0,.05,0,.07-.02v.1Z"/>
      <path fill="#fff" stroke-width="0px" d="M17.7,5.41s-.04,0-.05-.02c-.01-.01-.02-.03-.02-.05s0-.04.02-.05c.01-.01.03-.02.05-.02s.04,0,.05.02c.01.01.02.03.02.05s0,.04-.02.05c-.01.01-.03.02-.05.02M17.75,6.29h-.11v-.71h.11v.71Z"/>
      <path fill="#fff" stroke-width="0px" d="M18.28,6.31c-.1,0-.19-.03-.25-.1-.06-.07-.09-.15-.09-.26,0-.12.03-.21.1-.28.06-.07.15-.1.26-.1s.19.03.25.1c.06.06.09.15.09.27s-.03.2-.1.27-.15.1-.26.1M18.29,5.67c-.07,0-.13.02-.17.07s-.06.12-.06.2.02.15.06.2c.04.05.1.07.17.07s.13-.02.17-.07c.04-.05.06-.11.06-.2s-.02-.16-.06-.2c-.04-.05-.1-.07-.17-.07"/>
      <path fill="#fff" stroke-width="0px" d="M19.4,6.29h-.11v-.4c0-.15-.05-.22-.16-.22-.06,0-.1.02-.14.06-.04.04-.06.1-.06.16v.4h-.11v-.71h.11v.12h0c.05-.09.13-.13.23-.13.08,0,.14.02.18.07s.06.12.06.22v.43Z"/>
      <path fill="#fff" stroke-width="0px" d="M19.61,6.52h-.1c.14-.17.22-.37.22-.6s-.07-.44-.22-.61h.1c.14.17.22.37.22.61s-.07.44-.22.6"/>
    </g>
  </g>
</svg>
