<?xml version="1.0" encoding="UTF-8"?>
<svg id="Capa_2" data-name="Capa 2" xmlns="http://www.w3.org/2000/svg" viewBox="0 0 19.83 8.09">
  <g id="Capa_1-2" data-name="Capa 1">
    <g>
      <path fill="#fff" stroke-width="0px" d="M1.86,8.09h-.75s-.04-.02-.05-.02c-.52-.08-.9-.43-1.02-.95-.01-.05-.02-.09-.03-.14V1.1s.02-.09.03-.14C.17.38.65,0,1.26,0,2.4,0,3.55,0,4.69,0c.11,0,.21,0,.32.02.41.06.71.28.9.63-1.23,1.7-2.46,3.39-3.69,5.08-.59-.42-1.24-.72-1.94-.95.02.04.03.07.04.09.52.92.97,1.88,1.38,2.85.05.12.11.25.16.37"/>
      <path fill="#fff" stroke-width="0px" d="M2.45,8.09c.21-.46.41-.93.63-1.39.82-1.76,1.77-3.44,2.73-5.12.07-.13.15-.26.24-.38v.1c0,1.84,0,3.67,0,5.51,0,.74-.54,1.22-1.06,1.27-.02,0-.03.01-.04.02h-2.49Z"/>
      <rect fill="#fff" stroke-width="0px" x="8.54" y=".83" width=".49" height="2.09"/>
      <path fill="#fff" stroke-width="0px" d="M10.89,1.29l-.42.14c-.06-.17-.17-.25-.36-.25-.19,0-.29.06-.29.19,0,.05.02.09.05.13.04.03.12.06.25.09.21.04.37.09.47.13.1.04.18.11.25.21.07.1.1.21.1.33,0,.19-.07.35-.22.49-.15.14-.36.21-.65.21-.21,0-.4-.05-.55-.15-.15-.1-.25-.24-.3-.43l.45-.1c.05.19.19.29.42.29.11,0,.2-.02.25-.07.05-.04.08-.1.08-.16s-.02-.11-.07-.14c-.05-.03-.15-.07-.29-.09-.27-.06-.46-.13-.57-.23-.11-.1-.17-.23-.17-.42s.07-.34.2-.47c.14-.13.32-.19.55-.19.41,0,.67.16.79.49"/>
      <path fill="#fff" stroke-width="0px" d="M12.05,2.95c-.28,0-.5-.11-.65-.32-.15-.21-.23-.47-.23-.77s.08-.56.23-.76c.16-.2.38-.31.67-.31s.51.11.66.33c.15.22.22.47.22.75,0,.3-.08.56-.23.77-.15.21-.38.31-.67.31M12.07,1.2c-.26,0-.39.23-.39.68s.13.68.39.68.37-.23.37-.68-.12-.68-.37-.68"/>
      <path fill="#fff" stroke-width="0px" d="M14.37,2.33c.04.13.12.19.24.19.08,0,.16-.03.22-.1s.09-.23.1-.48c-.1.13-.24.19-.41.19s-.3-.05-.4-.16c-.11-.1-.16-.24-.16-.4,0-.18.06-.33.18-.44.12-.11.28-.17.49-.17.15,0,.28.03.39.1.11.07.19.17.25.32.06.15.09.31.09.5,0,.27-.06.5-.19.69-.13.19-.31.28-.57.28-.32,0-.52-.15-.6-.45l.38-.07ZM14.63,1.26c-.08,0-.15.03-.2.09-.05.06-.08.12-.08.19s.02.14.07.19c.05.06.11.08.2.08s.15-.03.2-.09c.05-.06.08-.12.08-.19s-.03-.14-.08-.19c-.05-.06-.12-.08-.2-.08"/>
      <path fill="#fff" stroke-width="0px" d="M16.27,2.84c-.22,0-.4-.09-.52-.27-.12-.18-.19-.4-.19-.67s.06-.49.18-.67c.12-.18.3-.27.53-.27s.41.09.53.27c.12.18.19.4.19.67s-.06.49-.19.68c-.12.18-.3.27-.53.27M16.27,1.27c-.1,0-.17.05-.21.14-.04.09-.06.26-.06.49s.02.4.06.49c.04.09.11.14.21.14s.16-.05.21-.14c.04-.09.06-.25.06-.48,0-.25-.02-.42-.06-.51-.04-.09-.11-.14-.21-.14"/>
      <path fill="#fff" stroke-width="0px" d="M17.88,2.84c-.22,0-.4-.09-.52-.27-.12-.18-.19-.4-.19-.67s.06-.49.18-.67c.12-.18.3-.27.53-.27s.41.09.53.27c.12.18.19.4.19.67s-.06.49-.19.68c-.12.18-.3.27-.53.27M17.88,1.27c-.1,0-.17.05-.21.14-.04.09-.06.26-.06.49s.02.4.06.49c.04.09.11.14.21.14s.17-.05.21-.14c.04-.09.06-.25.06-.48,0-.25-.02-.42-.06-.51-.04-.09-.11-.14-.21-.14"/>
      <path fill="#fff" stroke-width="0px" d="M19.22,2.83v-1.32c-.2.12-.35.2-.46.25v-.34c.29-.08.48-.32.56-.46h.28v1.87"/>
      <rect fill="#fff" stroke-width="0px" x="8.54" y="4.09" width="11.21" height=".15"/>
      <polygon fill="#fff" stroke-width="0px" points="8.98 6.27 8.47 6.27 8.47 5.28 8.59 5.28 8.59 6.17 8.98 6.17 8.98 6.27"/>
      <polygon fill="#fff" stroke-width="0px" points="9.65 6.27 9.14 6.27 9.14 5.28 9.25 5.28 9.25 6.17 9.65 6.17 9.65 6.27"/>
      <rect fill="#fff" stroke-width="0px" x="9.77" y="5.83" width=".38" height=".09"/>
      <path fill="#fff" stroke-width="0px" d="M11.04,6.23c-.07.04-.16.06-.27.06-.14,0-.25-.05-.34-.14-.08-.09-.13-.21-.13-.36,0-.16.05-.29.14-.38.1-.1.22-.15.36-.15.09,0,.17.01.23.04v.12c-.07-.04-.15-.06-.23-.06-.11,0-.21.04-.28.11-.07.08-.11.18-.11.3s.03.22.1.29.15.11.26.11c.1,0,.19-.02.26-.07v.11Z"/>
      <path fill="#fff" stroke-width="0px" d="M11.91,6.5h-.1c-.14-.16-.21-.36-.21-.6s.07-.44.21-.61h.1c-.14.17-.22.38-.22.61s.07.43.22.6"/>
      <path fill="#fff" stroke-width="0px" d="M12.73,6.23c-.07.04-.16.06-.27.06-.14,0-.25-.05-.34-.14-.08-.09-.13-.21-.13-.36,0-.16.05-.29.14-.38.1-.1.22-.15.36-.15.09,0,.17.01.23.04v.12c-.07-.04-.15-.06-.23-.06-.11,0-.21.04-.28.11-.07.08-.11.18-.11.3s.03.22.1.29.15.11.26.11c.1,0,.19-.02.26-.07v.11Z"/>
      <path fill="#fff" stroke-width="0px" d="M13.48,5.95h-.5c0,.08.02.14.06.18.04.04.1.06.17.06.08,0,.15-.03.22-.08v.11c-.06.05-.14.07-.25.07s-.18-.03-.24-.1c-.06-.06-.09-.15-.09-.27,0-.11.03-.2.09-.27.06-.07.14-.1.23-.1s.16.03.21.09c.05.06.08.14.08.25v.06ZM13.37,5.85c0-.07-.02-.12-.05-.15-.03-.04-.07-.05-.13-.05s-.1.02-.14.06c-.04.04-.06.09-.07.15h.38Z"/>
      <path fill="#fff" stroke-width="0px" d="M14.02,5.68s-.05-.02-.09-.02c-.05,0-.09.02-.12.07s-.05.11-.05.19v.36h-.11v-.71h.11v.15h0s.04-.09.07-.12c.03-.03.07-.04.11-.04.03,0,.05,0,.07,0v.12Z"/>
      <path fill="#fff" stroke-width="0px" d="M14.51,6.26s-.06.02-.11.02c-.12,0-.19-.07-.19-.21v-.42h-.12v-.1h.12v-.17l.11-.04v.21h.18v.1h-.18v.4s0,.08.02.1c.02.02.04.03.08.03.03,0,.05,0,.07-.02v.1Z"/>
      <path fill="#fff" stroke-width="0px" d="M14.72,5.39s-.04,0-.05-.02c-.01-.01-.02-.03-.02-.05s0-.04.02-.05c.01-.01.03-.02.05-.02s.04,0,.05.02c.01.01.02.03.02.05s0,.04-.02.05c-.01.01-.03.02-.05.02M14.78,6.27h-.11v-.71h.11v.71Z"/>
      <path fill="#fff" stroke-width="0px" d="M15.36,5.33s-.05-.02-.08-.02c-.08,0-.12.05-.12.15v.11h.17v.1h-.17v.61h-.11v-.61h-.12v-.1h.12v-.11c0-.07.02-.13.06-.18.04-.04.1-.06.16-.06.03,0,.06,0,.08.01v.1Z"/>
      <path fill="#fff" stroke-width="0px" d="M15.51,5.39s-.04,0-.05-.02c-.01-.01-.02-.03-.02-.05s0-.04.02-.05c.01-.01.03-.02.05-.02s.04,0,.05.02c.01.01.02.03.02.05s0,.04-.02.05c-.01.01-.03.02-.05.02M15.56,6.27h-.11v-.71h.11v.71Z"/>
      <path fill="#fff" stroke-width="0px" d="M16.27,6.24c-.05.03-.12.05-.19.05-.1,0-.18-.03-.24-.1-.06-.07-.09-.15-.09-.25,0-.12.03-.21.1-.28.07-.07.16-.11.27-.11.06,0,.12.01.16.03v.12c-.05-.04-.11-.06-.17-.06-.07,0-.13.03-.18.08-.05.05-.07.12-.07.2s.02.15.07.2.1.07.17.07c.06,0,.12-.02.17-.06v.11Z"/>
      <path fill="#fff" stroke-width="0px" d="M16.95,6.27h-.11v-.11h0c-.05.08-.12.13-.22.13-.07,0-.13-.02-.17-.06-.04-.04-.06-.09-.06-.15,0-.13.08-.21.23-.23l.21-.03c0-.12-.05-.18-.15-.18-.09,0-.16.03-.23.09v-.12c.07-.04.15-.07.24-.07.17,0,.25.09.25.26v.46ZM16.84,5.91l-.17.02c-.05,0-.09.02-.12.04-.03.02-.04.05-.04.1,0,.03.01.06.04.08.02.02.06.03.1.03.06,0,.1-.02.14-.06.04-.04.05-.09.05-.15v-.07Z"/>
      <path fill="#fff" stroke-width="0px" d="M17.49,6.26s-.06.02-.11.02c-.12,0-.19-.07-.19-.21v-.42h-.12v-.1h.12v-.17l.11-.04v.21h.18v.1h-.18v.4s0,.08.02.1c.02.02.04.03.08.03.03,0,.05,0,.07-.02v.1Z"/>
      <path fill="#fff" stroke-width="0px" d="M17.7,5.39s-.04,0-.05-.02c-.01-.01-.02-.03-.02-.05s0-.04.02-.05c.01-.01.03-.02.05-.02s.04,0,.05.02c.01.01.02.03.02.05s0,.04-.02.05c-.01.01-.03.02-.05.02M17.75,6.27h-.11v-.71h.11v.71Z"/>
      <path fill="#fff" stroke-width="0px" d="M18.28,6.29c-.1,0-.19-.03-.25-.1-.06-.07-.09-.15-.09-.26,0-.12.03-.21.1-.28.06-.07.15-.1.26-.1s.19.03.25.1c.06.06.09.15.09.27s-.03.2-.1.27c-.06.07-.15.1-.26.1M18.29,5.64c-.07,0-.13.02-.17.07-.04.05-.06.12-.06.2s.02.15.06.2c.04.05.1.07.17.07s.13-.02.17-.07c.04-.05.06-.11.06-.2s-.02-.16-.06-.2c-.04-.05-.1-.07-.17-.07"/>
      <path fill="#fff" stroke-width="0px" d="M19.4,6.27h-.11v-.4c0-.15-.05-.23-.16-.23-.06,0-.1.02-.14.06-.04.04-.06.1-.06.16v.4h-.11v-.71h.11v.12h0c.05-.09.13-.13.23-.13.08,0,.14.02.18.07s.06.12.06.22v.43Z"/>
      <path fill="#fff" stroke-width="0px" d="M19.61,6.5h-.1c.14-.17.22-.37.22-.6s-.07-.44-.22-.61h.1c.14.17.22.37.22.61s-.07.44-.22.6"/>
    </g>
  </g>
</svg>
