<svg width="17" height="12" viewBox="0 0 17 12" fill="none" xmlns="http://www.w3.org/2000/svg">
<g clip-path="url(#clip0_2168_1255)">
<path d="M0 11.7819C0.182678 12.0343 0.294977 12.0531 0.585815 11.9132C1.37863 11.5321 2.2175 11.2894 3.08277 11.1275C4.00496 10.955 4.93595 10.8975 5.87212 10.9383C6.66752 10.9729 7.45671 11.0777 8.22779 11.2751C8.50983 11.3474 8.76444 11.2751 9.02475 11.2181C10.2155 10.9586 11.4182 10.8726 12.6328 10.9688C13.969 11.0746 15.2576 11.3713 16.4727 11.9427C16.7702 12.0826 17 11.9366 17 11.6064C17 9.30487 17 7.00389 17 4.70291C17 3.60941 17 2.51591 17 1.42241C17 1.10948 16.8929 1.00364 16.5725 1.00211C16.247 1.00058 15.921 1.00211 15.5686 1.00211C15.5686 0.890674 15.5701 0.789924 15.5686 0.689173C15.5644 0.447982 15.4801 0.345197 15.2451 0.286171C14.1341 0.00783488 13.0085 -0.0740886 11.8736 0.0704223C10.6171 0.230707 9.48067 0.666784 8.56417 1.56438C8.54916 1.57914 8.53001 1.59033 8.51035 1.60509C8.31318 1.44378 8.12481 1.27688 7.92247 1.12779C7.14052 0.549751 6.24731 0.240884 5.28992 0.0968821C4.09346 -0.0832477 2.91096 0.00376416 1.74037 0.290751C1.54992 0.337564 1.46764 0.425593 1.4516 0.617427C1.44125 0.740057 1.44953 0.864214 1.44953 1.00567C1.09349 1.00567 0.7628 1.0128 0.432116 1.00313C0.233395 0.997022 0.0884933 1.0591 0.000518799 1.2372V11.7824L0 11.7819ZM14.8969 0.889148V9.40104C12.7942 9.19242 10.7367 9.21786 8.84103 10.3068C8.83689 10.2783 8.83275 10.263 8.83275 10.2478C8.83638 7.6201 8.83948 4.99244 8.84776 2.3653C8.84776 2.30322 8.88295 2.22842 8.92642 2.1811C9.27677 1.80354 9.68922 1.50434 10.1524 1.27536C10.8422 0.933926 11.5791 0.767026 12.3461 0.704947C13.2067 0.635236 14.0533 0.713597 14.8969 0.889656V0.889148ZM2.12591 9.40053V0.885586C3.17488 0.673399 4.21559 0.599617 5.2656 0.77822C6.34304 0.961912 7.3056 1.37 8.06737 2.16634C8.12377 2.22486 8.16466 2.32408 8.16466 2.40499C8.16983 4.98837 8.1688 7.57176 8.16828 10.1557C8.16828 10.2014 8.16414 10.2478 8.16155 10.3047C6.26335 9.22447 4.21869 9.18478 2.12539 9.40104L2.12591 9.40053ZM6.54901 10.2885C6.54642 10.3053 6.54384 10.322 6.54125 10.3393C4.52091 10.1343 2.56734 10.405 0.668615 11.155V1.66869H1.43038C1.43038 1.74247 1.43038 1.80659 1.43038 1.87019C1.43038 4.47088 1.43038 7.07208 1.43038 9.67276C1.43038 10.005 1.57373 10.1287 1.90131 10.0895C2.22475 10.0508 2.54871 10.0096 2.87318 9.98723C3.62977 9.93431 4.38843 9.90988 5.1414 10.0218C5.61336 10.092 6.07963 10.1984 6.54849 10.2885H6.54901ZM10.4712 10.3302C11.1626 10.1007 11.8783 9.98265 12.6085 9.95619C13.4608 9.92515 14.3095 9.97654 15.153 10.1063C15.3461 10.1358 15.5039 10.0264 15.5417 9.83865C15.5572 9.75978 15.5619 9.67734 15.5619 9.59644C15.5629 7.02424 15.5629 4.45205 15.5629 1.87935C15.5629 1.81066 15.5629 1.74197 15.5629 1.66767H16.3304V11.1535C14.4389 10.4055 12.491 10.1368 10.4722 10.3302H10.4712Z" fill="white"/>
</g>
<defs>
<clipPath id="clip0_2168_1255">
<rect width="17" height="12" fill="white" transform="matrix(-1 0 0 1 17 0)"/>
</clipPath>
</defs>
</svg>
