<svg width="17" height="17" viewBox="0 0 17 17" fill="none" xmlns="http://www.w3.org/2000/svg">
<g clip-path="url(#clip0_224_2593)">
<path d="M0.205811 8.57983C0.205811 6.53957 0.205811 4.49985 0.205811 2.46069C0.205811 1.39121 0.965261 0.631104 2.03514 0.631104H14.3166C15.3848 0.631104 16.146 1.39011 16.146 2.46069C16.146 6.5549 16.146 10.6493 16.146 14.7439C16.146 15.8111 15.386 16.5735 14.3166 16.5735H2.03514C0.967479 16.5735 0.205811 15.8128 0.205811 14.7439C0.205811 12.6888 0.205811 10.6341 0.205811 8.57983ZM2.00022 2.41856V14.7755H14.351V2.41856H2.00022Z" fill="#273243"/>
<path d="M12.6005 8.5943H10.8416V5.94915H8.18848V4.17944H12.6016L12.6005 8.5943Z" fill="#273243"/>
<path d="M3.75024 8.60645H5.50973V11.2521H8.16337V13.0224H3.75024V8.60645Z" fill="#273243"/>
</g>
<defs>
<clipPath id="clip0_224_2593">
<rect width="15.939" height="15.939" fill="white" transform="translate(0.205811 0.631104)"/>
</clipPath>
</defs>
</svg>
