<svg width="21" height="22" viewBox="0 0 21 22" fill="none" xmlns="http://www.w3.org/2000/svg">
<path d="M11.6073 22.0041C11.4291 22.0046 11.2525 21.969 11.0877 21.8993C10.923 21.8296 10.7732 21.7271 10.647 21.5978C10.5208 21.4684 10.4206 21.3148 10.3523 21.1456C10.284 20.9764 10.2488 20.795 10.2488 20.6118C10.2443 20.5752 10.2474 20.5379 10.258 20.5026C10.2686 20.4673 10.2863 20.4347 10.3101 20.407C10.3338 20.3793 10.3631 20.3571 10.3958 20.3419C10.4286 20.3267 10.4641 20.3188 10.5 20.3188C10.536 20.3188 10.5715 20.3267 10.6043 20.3419C10.637 20.3571 10.6662 20.3793 10.69 20.407C10.7138 20.4347 10.7315 20.4673 10.7421 20.5026C10.7526 20.5379 10.7557 20.5752 10.7512 20.6118C10.7661 20.8342 10.8625 21.0426 11.0211 21.1947C11.1796 21.3469 11.3884 21.4315 11.6053 21.4315C11.8222 21.4315 12.031 21.3469 12.1895 21.1947C12.3481 21.0426 12.4445 20.8342 12.4594 20.6118V13.0678C12.4671 13.0049 12.4969 12.9471 12.5431 12.9052C12.5894 12.8633 12.6489 12.8402 12.7106 12.8402C12.7722 12.8402 12.8317 12.8633 12.878 12.9052C12.9242 12.9471 12.954 13.0049 12.9618 13.0678V20.6118C12.9618 20.9811 12.8191 21.3352 12.565 21.5963C12.311 21.8574 11.9665 22.0041 11.6073 22.0041Z" fill="#ADD53D"/>
<path d="M9.3968 22.0041C9.21859 22.0046 9.04203 21.969 8.87724 21.8993C8.71245 21.8296 8.56266 21.7271 8.43646 21.5978C8.31026 21.4684 8.21013 21.3148 8.14181 21.1456C8.0735 20.9764 8.03833 20.795 8.03833 20.6118V13.0678C8.04608 13.0049 8.07587 12.9471 8.12212 12.9052C8.16836 12.8633 8.22789 12.8402 8.28953 12.8402C8.35117 12.8402 8.41069 12.8633 8.45694 12.9052C8.50318 12.9471 8.53297 13.0049 8.54072 13.0678V20.6118C8.55558 20.8342 8.65201 21.0426 8.81055 21.1947C8.96908 21.3469 9.17789 21.4315 9.39479 21.4315C9.61169 21.4315 9.8205 21.3469 9.97903 21.1947C10.1376 21.0426 10.234 20.8342 10.2489 20.6118V13.4809C10.2566 13.418 10.2864 13.3603 10.3326 13.3184C10.3789 13.2765 10.4384 13.2534 10.5001 13.2534C10.5617 13.2534 10.6212 13.2765 10.6675 13.3184C10.7137 13.3603 10.7435 13.418 10.7512 13.4809V20.6118C10.7512 20.9811 10.6085 21.3352 10.3545 21.5963C10.1005 21.8574 9.75602 22.0041 9.3968 22.0041Z" fill="#ADD53D"/>
<path d="M10.4981 3.82573C10.13 3.82573 9.77025 3.71354 9.46423 3.50335C9.15821 3.29316 8.9197 2.99442 8.77886 2.64489C8.63801 2.29536 8.60116 1.91074 8.67296 1.53968C8.74477 1.16862 8.922 0.827784 9.18224 0.560266C9.44249 0.292747 9.77406 0.110564 10.135 0.036756C10.496 -0.0370523 10.8702 0.000828817 11.2102 0.145609C11.5502 0.290389 11.8408 0.535566 12.0453 0.850134C12.2498 1.1647 12.3589 1.53454 12.3589 1.91286C12.3589 2.42019 12.1629 2.90673 11.8139 3.26546C11.4649 3.62419 10.9916 3.82573 10.4981 3.82573ZM10.4981 0.520564C10.2292 0.520565 9.96641 0.60257 9.74293 0.756195C9.51944 0.909821 9.34533 1.12816 9.24263 1.38356C9.13993 1.63897 9.11326 1.91996 9.166 2.19095C9.21875 2.46194 9.34853 2.71076 9.53892 2.90588C9.7293 3.10101 9.97174 3.23368 10.2355 3.2871C10.4993 3.34051 10.7726 3.31227 11.0207 3.20594C11.2689 3.09961 11.4808 2.91999 11.6296 2.6898C11.7783 2.45962 11.8573 2.18923 11.8565 1.91286C11.8565 1.72968 11.8214 1.54829 11.7531 1.3791C11.6847 1.20991 11.5846 1.05624 11.4584 0.926896C11.3322 0.797555 11.1824 0.695085 11.0176 0.625359C10.8528 0.555632 10.6763 0.520021 10.4981 0.520564Z" fill="#ADD53D"/>
<path d="M12.7086 13.328C12.6421 13.327 12.5788 13.2991 12.5321 13.2504C12.4855 13.2017 12.4594 13.1361 12.4594 13.0678V7.28373C12.4672 7.22087 12.4969 7.16307 12.5432 7.12118C12.5894 7.07929 12.649 7.05618 12.7106 7.05618C12.7722 7.05618 12.8318 7.07929 12.878 7.12118C12.9243 7.16307 12.954 7.22087 12.9618 7.28373V12.8116C13.3267 12.7499 13.6584 12.5569 13.8976 12.267C14.1369 11.9772 14.2682 11.6094 14.268 11.2293V7.30439C14.2669 6.7156 14.0387 6.1513 13.6333 5.73535C13.2279 5.31941 12.6785 5.08579 12.1057 5.0858H8.89041C8.31832 5.08689 7.76997 5.32098 7.36545 5.73681C6.96092 6.15264 6.73319 6.71632 6.73213 7.30439V11.2293C6.73199 11.6094 6.86326 11.9772 7.10252 12.267C7.34179 12.5569 7.67346 12.7499 8.03835 12.8116V7.28373C8.0461 7.22087 8.07589 7.16307 8.12214 7.12118C8.16838 7.07929 8.2279 7.05618 8.28955 7.05618C8.35119 7.05618 8.41071 7.07929 8.45695 7.12118C8.5032 7.16307 8.53299 7.22087 8.54074 7.28373V13.0678C8.54074 13.1368 8.51406 13.203 8.46658 13.2518C8.41909 13.3006 8.35469 13.328 8.28754 13.328C7.7414 13.327 7.218 13.1032 6.83221 12.7058C6.44641 12.3085 6.22974 11.77 6.22974 11.2086V7.28373C6.2308 6.55869 6.51146 5.86366 7.0102 5.35098C7.50895 4.8383 8.18508 4.5498 8.89041 4.54871H12.1057C12.8117 4.54871 13.4889 4.83673 13.9885 5.34952C14.4881 5.86232 14.7693 6.55798 14.7704 7.28373V11.2086C14.7704 11.7707 14.5532 12.3098 14.1665 12.7073C13.7798 13.1048 13.2554 13.328 12.7086 13.328Z" fill="#ADD53D"/>
<path d="M17.837 22.0041C17.6588 22.0046 17.4822 21.969 17.3174 21.8993C17.1526 21.8296 17.0028 21.7271 16.8766 21.5978C16.7504 21.4684 16.6503 21.3148 16.582 21.1456C16.5137 20.9764 16.4785 20.795 16.4785 20.6118V14.3072C16.4863 14.2443 16.5161 14.1865 16.5623 14.1447C16.6085 14.1028 16.6681 14.0796 16.7297 14.0796C16.7914 14.0796 16.8509 14.1028 16.8971 14.1447C16.9434 14.1865 16.9732 14.2443 16.9809 14.3072V20.6118C16.9958 20.8342 17.0922 21.0426 17.2507 21.1948C17.4093 21.3469 17.6181 21.4315 17.835 21.4315C18.0519 21.4315 18.2607 21.3469 18.4192 21.1948C18.5778 21.0426 18.6742 20.8342 18.689 20.6118V13.8941C18.6968 13.8312 18.7266 13.7734 18.7728 13.7315C18.8191 13.6896 18.8786 13.6665 18.9402 13.6665C19.0019 13.6665 19.0614 13.6896 19.1076 13.7315C19.1539 13.7734 19.1837 13.8312 19.1914 13.8941V20.6118C19.1914 20.9811 19.0487 21.3352 18.7947 21.5963C18.5407 21.8574 18.1962 22.0041 17.837 22.0041Z" fill="#ADD53D"/>
<path d="M15.6263 22.0041C15.4481 22.0046 15.2715 21.969 15.1067 21.8993C14.9419 21.8296 14.7921 21.7271 14.666 21.5978C14.5398 21.4684 14.4396 21.3148 14.3713 21.1456C14.303 20.9764 14.2678 20.795 14.2678 20.6118V13.0678C14.2756 13.0049 14.3054 12.9471 14.3516 12.9052C14.3979 12.8633 14.4574 12.8402 14.519 12.8402C14.5807 12.8402 14.6402 12.8633 14.6864 12.9052C14.7327 12.9471 14.7625 13.0049 14.7702 13.0678V20.6118C14.7851 20.8342 14.8815 21.0426 15.04 21.1947C15.1986 21.3469 15.4074 21.4315 15.6243 21.4315C15.8412 21.4315 16.05 21.3469 16.2085 21.1947C16.3671 21.0426 16.4635 20.8342 16.4783 20.6118C16.4738 20.5752 16.477 20.5379 16.4875 20.5026C16.4981 20.4673 16.5158 20.4347 16.5396 20.407C16.5633 20.3793 16.5926 20.3571 16.6253 20.3419C16.6581 20.3267 16.6936 20.3188 16.7295 20.3188C16.7655 20.3188 16.801 20.3267 16.8338 20.3419C16.8665 20.3571 16.8958 20.3793 16.9195 20.407C16.9433 20.4347 16.961 20.4673 16.9716 20.5026C16.9821 20.5379 16.9853 20.5752 16.9807 20.6118C16.9807 20.9811 16.838 21.3352 16.584 21.5963C16.33 21.8574 15.9855 22.0041 15.6263 22.0041Z" fill="#ADD53D"/>
<path d="M16.7276 5.06511C16.3595 5.06511 15.9997 4.95292 15.6937 4.74273C15.3877 4.53254 15.1492 4.2338 15.0083 3.88427C14.8675 3.53474 14.8307 3.15012 14.9025 2.77906C14.9743 2.408 15.1515 2.06716 15.4117 1.79965C15.672 1.53213 16.0036 1.34994 16.3645 1.27614C16.7255 1.20233 17.0997 1.24021 17.4397 1.38499C17.7797 1.52977 18.0703 1.77495 18.2748 2.08951C18.4793 2.40408 18.5884 2.77392 18.5884 3.15224C18.5884 3.40345 18.5403 3.65219 18.4468 3.88427C18.3533 4.11635 18.2162 4.32722 18.0434 4.50484C17.8706 4.68247 17.6655 4.82337 17.4397 4.9195C17.2139 5.01563 16.9719 5.06511 16.7276 5.06511ZM16.7276 1.75994C16.4587 1.75995 16.1959 1.84195 15.9724 1.99558C15.7489 2.1492 15.5748 2.36754 15.4721 2.62294C15.3694 2.87835 15.3428 3.15934 15.3955 3.43033C15.4482 3.70132 15.578 3.95013 15.7684 4.14526C15.9588 4.34039 16.2012 4.47306 16.465 4.52648C16.7288 4.57989 17.0021 4.55165 17.2502 4.44532C17.4984 4.33899 17.7103 4.15937 17.859 3.92918C18.0078 3.699 18.0868 3.42861 18.086 3.15224C18.086 2.96906 18.0509 2.78767 17.9825 2.61848C17.9142 2.44929 17.8141 2.29562 17.6879 2.16628C17.5617 2.03693 17.4119 1.93446 17.2471 1.86474C17.0823 1.79501 16.9058 1.7594 16.7276 1.75994Z" fill="#ADD53D"/>
<path d="M18.9382 14.1544C18.8718 14.1533 18.8084 14.1254 18.7618 14.0767C18.7152 14.028 18.689 13.9624 18.689 13.8941V8.52323C18.6968 8.46037 18.7266 8.40258 18.7728 8.36068C18.8191 8.31879 18.8786 8.29568 18.9402 8.29568C19.0019 8.29568 19.0614 8.31879 19.1077 8.36068C19.1539 8.40258 19.1837 8.46037 19.1914 8.52323V13.638C19.5598 13.5757 19.8941 13.3797 20.1338 13.0855C20.3735 12.7914 20.5026 12.4186 20.4977 12.035V8.52323C20.4966 7.93445 20.2683 7.37015 19.8629 6.9542C19.4575 6.53825 18.9081 6.30464 18.3354 6.30464H15.12C15.0589 6.29667 15.0027 6.26605 14.9619 6.21851C14.9212 6.17097 14.8987 6.10979 14.8987 6.04642C14.8987 5.98306 14.9212 5.92187 14.9619 5.87434C15.0027 5.8268 15.0589 5.79618 15.12 5.78821H18.3354C19.0414 5.78821 19.7185 6.07623 20.2182 6.58903C20.7178 7.10182 20.999 7.79748 21.0001 8.52323V12.035C21.0001 12.3133 20.9467 12.5889 20.8431 12.846C20.7395 13.1032 20.5876 13.3368 20.3962 13.5336C20.2047 13.7304 19.9774 13.8866 19.7273 13.9931C19.4771 14.0996 19.209 14.1544 18.9382 14.1544Z" fill="#ADD53D"/>
<path d="M3.16706 22.0041C2.98886 22.0046 2.8123 21.969 2.6475 21.8993C2.48271 21.8296 2.33292 21.7271 2.20672 21.5978C2.08052 21.4684 1.9804 21.3148 1.91208 21.1456C1.84376 20.9764 1.80859 20.795 1.80859 20.6118V13.8941C1.81634 13.8312 1.84614 13.7734 1.89238 13.7315C1.93863 13.6896 1.99815 13.6665 2.05979 13.6665C2.12143 13.6665 2.18095 13.6896 2.2272 13.7315C2.27344 13.7734 2.30324 13.8312 2.31099 13.8941V20.6118C2.32584 20.8342 2.42228 21.0426 2.58081 21.1948C2.73934 21.3469 2.94816 21.4315 3.16505 21.4315C3.38195 21.4315 3.59076 21.3469 3.7493 21.1948C3.90783 21.0426 4.00427 20.8342 4.01912 20.6118V14.3072C4.02687 14.2443 4.05666 14.1865 4.10291 14.1447C4.14915 14.1028 4.20868 14.0796 4.27032 14.0796C4.33196 14.0796 4.39148 14.1028 4.43773 14.1447C4.48397 14.1865 4.51376 14.2443 4.52151 14.3072V20.6118C4.52151 20.9811 4.37881 21.3352 4.1248 21.5963C3.87079 21.8574 3.52629 22.0041 3.16706 22.0041Z" fill="#ADD53D"/>
<path d="M5.37757 22.0041C5.19936 22.0046 5.0228 21.969 4.85801 21.8993C4.69322 21.8296 4.54343 21.7271 4.41723 21.5978C4.29103 21.4684 4.1909 21.3148 4.12258 21.1456C4.05427 20.9764 4.0191 20.795 4.0191 20.6118C4.01458 20.5752 4.0177 20.5379 4.02826 20.5026C4.03882 20.4673 4.05657 20.4347 4.08033 20.407C4.10409 20.3793 4.13332 20.3571 4.16607 20.3419C4.19883 20.3267 4.23436 20.3188 4.2703 20.3188C4.30624 20.3188 4.34176 20.3267 4.37452 20.3419C4.40727 20.3571 4.4365 20.3793 4.46026 20.407C4.48402 20.4347 4.50177 20.4673 4.51233 20.5026C4.52289 20.5379 4.52601 20.5752 4.52149 20.6118C4.53634 20.8342 4.63278 21.0426 4.79131 21.1947C4.94985 21.3469 5.15866 21.4315 5.37556 21.4315C5.59246 21.4315 5.80127 21.3469 5.9598 21.1947C6.11834 21.0426 6.21477 20.8342 6.22963 20.6118V13.0678C6.23738 13.0049 6.26717 12.9471 6.31341 12.9052C6.35966 12.8633 6.41918 12.8402 6.48082 12.8402C6.54246 12.8402 6.60199 12.8633 6.64823 12.9052C6.69448 12.9471 6.72427 13.0049 6.73202 13.0678V20.6118C6.73202 20.9811 6.58932 21.3352 6.33531 21.5963C6.0813 21.8574 5.73679 22.0041 5.37757 22.0041Z" fill="#ADD53D"/>
<path d="M4.26833 5.06511C3.90029 5.06511 3.54051 4.95292 3.23449 4.74273C2.92848 4.53254 2.68997 4.2338 2.54912 3.88427C2.40828 3.53474 2.37143 3.15012 2.44323 2.77906C2.51503 2.408 2.69226 2.06716 2.95251 1.79965C3.21275 1.53213 3.54433 1.34994 3.9053 1.27614C4.26627 1.20233 4.64043 1.24021 4.98045 1.38499C5.32048 1.52977 5.61111 1.77495 5.81558 2.08951C6.02006 2.40408 6.12919 2.77392 6.12919 3.15224C6.12919 3.40345 6.08106 3.65219 5.98754 3.88427C5.89403 4.11635 5.75696 4.32722 5.58416 4.50484C5.41136 4.68247 5.20622 4.82337 4.98045 4.9195C4.75468 5.01563 4.5127 5.06511 4.26833 5.06511ZM4.26833 1.75994C3.99948 1.75995 3.73668 1.84195 3.51319 1.99558C3.28971 2.1492 3.11559 2.36754 3.01289 2.62294C2.91019 2.87835 2.88352 3.15934 2.93627 3.43033C2.98901 3.70132 3.11879 3.95013 3.30918 4.14526C3.49957 4.34039 3.742 4.47306 4.00578 4.52648C4.26956 4.57989 4.54283 4.55165 4.79099 4.44532C5.03914 4.33899 5.25103 4.15937 5.39981 3.92918C5.5486 3.699 5.6276 3.42861 5.6268 3.15224C5.6268 2.96906 5.59164 2.78767 5.52332 2.61848C5.455 2.44929 5.35487 2.29562 5.22867 2.16628C5.10247 2.03693 4.95269 1.93446 4.78789 1.86474C4.6231 1.79501 4.44654 1.7594 4.26833 1.75994Z" fill="#ADD53D"/>
<path d="M2.0578 14.1544C1.51167 14.1533 0.988268 13.9295 0.602471 13.5322C0.216674 13.1348 -1.03761e-06 12.5964 0 12.035L0 8.52322C0.00106304 7.79818 0.281724 7.10316 0.780466 6.59048C1.27921 6.0778 1.95534 5.78929 2.66067 5.7882H5.87598C5.91164 5.78355 5.94784 5.78676 5.9822 5.79762C6.01655 5.80847 6.04826 5.82671 6.07523 5.85114C6.10219 5.87556 6.12379 5.90561 6.13858 5.93928C6.15337 5.97295 6.16102 6.00947 6.16102 6.04641C6.16102 6.08336 6.15337 6.11988 6.13858 6.15355C6.12379 6.18722 6.10219 6.21726 6.07523 6.24169C6.04826 6.26612 6.01655 6.28436 5.9822 6.29521C5.94784 6.30607 5.91164 6.30928 5.87598 6.30463H2.66067C2.08859 6.30572 1.54024 6.53982 1.13571 6.95565C0.731185 7.37148 0.503455 7.93515 0.502392 8.52322V12.035C0.497444 12.4186 0.62654 12.7914 0.866226 13.0855C1.10591 13.3797 1.44029 13.5757 1.80861 13.638V8.52322C1.81636 8.46036 1.84615 8.40257 1.8924 8.36067C1.93864 8.31878 1.99817 8.29567 2.05981 8.29567C2.12145 8.29567 2.18097 8.31878 2.22722 8.36067C2.27346 8.40257 2.30325 8.46036 2.311 8.52322V13.8941C2.311 13.9631 2.28433 14.0293 2.23684 14.0782C2.18936 14.127 2.12495 14.1544 2.0578 14.1544Z" fill="#ADD53D"/>
</svg>
