<svg xmlns="http://www.w3.org/2000/svg" viewBox="0 0 53.25 53.25"><defs><style>.cls-1{fill:#262626;}</style></defs><g id="Слой_2" data-name="Слой 2"><g id="Layer_1" data-name="Layer 1"><path class="cls-1" d="M26.62,53.25A26.63,26.63,0,1,1,53.25,26.62,26.65,26.65,0,0,1,26.62,53.25Zm0-52A25.38,25.38,0,1,0,52,26.62,25.4,25.4,0,0,0,26.62,1.25Z"/><path class="cls-1" d="M22.29,39.25a2.84,2.84,0,0,1-1.3-.32,2.79,2.79,0,0,1-1.49-2.47V16.79a2.79,2.79,0,0,1,4.36-2.31l14.43,9.84a2.8,2.8,0,0,1,0,4.61L23.86,38.77A2.81,2.81,0,0,1,22.29,39.25Zm0-24a1.57,1.57,0,0,0-.72.18,1.52,1.52,0,0,0-.82,1.36V36.46a1.52,1.52,0,0,0,.82,1.36,1.5,1.5,0,0,0,1.58-.09L37.58,27.9a1.55,1.55,0,0,0,0-2.55L23.15,15.52A1.51,1.51,0,0,0,22.29,15.25Z"/></g></g></svg>