<?xml version="1.0" encoding="UTF-8"?>
<svg id="Capa_2" data-name="Capa 2" xmlns="http://www.w3.org/2000/svg" viewBox="0 0 24.09 12.1">
  <g id="Capa_1-2" data-name="Capa 1">
    <g>
      <g>
        <path fill="#fff" stroke-width="0px" d="M14.62.01s.05,0,.07,0c1.78-.04,3.49.28,5.14.94.88.35,1.67.88,2.42,1.47.62.49,1.19,1.03,1.72,1.61.08.09.12.18.12.31,0,1.64,0,3.28-.01,4.93,0,.03,0,.06-.02.1-.02-.08-.04-.17-.06-.25-.34-1.35-.93-2.59-1.68-3.75-.54-.83-1.16-1.6-1.86-2.3-.77-.76-1.65-1.36-2.61-1.85-1-.52-2.05-.91-3.15-1.15-.02,0-.05-.01-.07-.02,0,0,0-.01,0-.02Z"/>
        <path fill="#fff" stroke-width="0px" d="M0,2.73c.14.45.26.89.41,1.32.53,1.46,1.32,2.76,2.29,3.97,1.62,2.03,3.75,3.23,6.21,3.92.19.05.38.09.57.16-.05,0-.09,0-.14,0-1.21.04-2.38-.15-3.55-.43-1.72-.41-3.2-1.27-4.5-2.44-.41-.36-.78-.76-1.17-1.15C.04,8,0,7.9,0,7.77c0-1.27,0-2.54,0-3.81,0-.41,0-.82,0-1.23Z"/>
        <path fill="#fff" stroke-width="0px" d="M16.09,5.52c0,.22,0,.41,0,.6,0,.31.02.62.03.92,0,.01,0,.03,0,.04,0,.26.03.29.27.35h-.68s0-.02,0-.02c.19-.03.22-.07.22-.29,0-.65,0-1.3,0-1.95,0-.04,0-.09.01-.13.01,0,.02-.01.03-.02.61.66,1.23,1.32,1.86,2.01,0-.12,0-.2,0-.29,0-.43-.02-.86-.03-1.3,0-.29,0-.29-.29-.37h.65c-.17.02-.19.13-.19.27,0,.19,0,.38,0,.56,0,.48,0,.96,0,1.44,0,.03,0,.07-.01.14-.67-.64-1.26-1.3-1.88-1.98Z"/>
        <path fill="#fff" stroke-width="0px" d="M9.8,6.39c.23.28.47.56.72.84.1.12.24.18.41.18.01,0,.02,0,.05.01-.39.1-.64.01-.87-.29-.15-.2-.3-.4-.45-.61-.05-.07-.1-.1-.18-.1-.08,0-.17,0-.25,0-.03,0-.07.04-.07.06,0,.24,0,.48.01.72.01.16.05.18.21.19.02,0,.03,0,.05.02h-.71c.16-.01.18-.13.18-.25,0-.19.01-.39.01-.58,0-.39,0-.79,0-1.18,0-.25,0-.26-.22-.32.32,0,.67-.04,1.01,0,.46.06.64.49.4.91-.07.13-.17.24-.28.37ZM9.13,5.75c0,.08,0,.17,0,.25,0,.33,0,.34.34.34,0,0,.01,0,.02,0,.21,0,.33-.09.39-.29.02-.06.04-.13.04-.2.02-.37-.14-.75-.67-.7-.08,0-.13.04-.12.13,0,.15,0,.3,0,.46Z"/>
        <path fill="#fff" stroke-width="0px" d="M4.5,2.61c.27.56.54,1.12.83,1.7.28-.59.54-1.14.8-1.7.01,0,.02,0,.03,0,.02.14.03.28.05.43.05.42.09.83.14,1.25.03.25.06.27.28.32h-.46c-.05-.5-.09-.98-.14-1.47-.01,0-.02,0-.03,0-.23.49-.47.99-.7,1.48-.01,0-.02,0-.03,0-.12-.24-.25-.48-.36-.72-.12-.24-.23-.49-.38-.74,0,.09-.02.18-.03.27-.03.32-.05.65-.08.97,0,.11,0,.19.14.21h-.46c.12-.02.15-.11.16-.22.06-.57.12-1.14.19-1.71,0-.02.01-.05.02-.07,0,0,.02,0,.03,0Z"/>
        <path fill="#fff" stroke-width="0px" d="M10.83,5.08h.7c-.19.03-.18.17-.18.31,0,.37,0,.74,0,1.12,0,.12.02.23.04.35.08.34.35.54.69.53.33-.01.58-.24.63-.59.03-.2.03-.41.03-.61,0-.27,0-.54,0-.81,0-.22-.02-.22-.23-.29h.6c-.21.03-.18.2-.18.34,0,.4,0,.79-.02,1.19-.02.46-.27.77-.7.85-.39.07-.77-.02-.97-.33-.14-.21-.16-.44-.17-.68,0-.35,0-.7,0-1.05,0-.24,0-.24-.25-.32Z"/>
        <path fill="#fff" stroke-width="0px" d="M13.86,7.44h-.65c.26-.01.31-.22.38-.41.23-.62.45-1.24.68-1.86.02-.05.04-.09.07-.16.03.06.05.1.07.14.24.62.48,1.25.72,1.87.02.05.04.1.06.15.07.14.16.25.34.27h-.56c0-.06,0-.13-.03-.19-.08-.21-.16-.42-.24-.64-.02-.07-.06-.1-.13-.1-.18,0-.36,0-.54,0-.04,0-.1.03-.11.06-.08.21-.15.42-.21.63-.04.14-.03.16.15.23ZM13.98,6.4h.65c-.11-.31-.21-.61-.32-.9-.01,0-.02,0-.04,0-.1.29-.19.59-.3.9Z"/>
        <path fill="#fff" stroke-width="0px" d="M20.74,7.44h-.56c-.01-.07-.02-.14-.04-.2-.08-.21-.16-.42-.24-.64-.02-.06-.06-.08-.12-.08-.18,0-.37,0-.55,0-.06,0-.1.02-.12.08-.06.2-.13.39-.19.58-.05.16-.03.2.16.26h-.66s0-.02,0-.02c.21,0,.29-.14.35-.31.23-.65.47-1.29.71-1.93.02-.05.04-.09.07-.17.03.06.05.1.07.14.23.6.47,1.21.7,1.81.02.06.04.11.07.17.07.15.16.3.36.32ZM19.83,6.41c-.11-.31-.21-.61-.32-.91-.01,0-.02,0-.04,0-.1.3-.19.6-.3.91h.65Z"/>
        <path fill="#fff" stroke-width="0px" d="M4.75,5.09c.33,0,.66-.02,1,0,.23.02.41.14.47.38.06.26,0,.49-.19.68-.16.15-.36.21-.57.2-.01,0-.03,0-.04-.03.06,0,.12,0,.18-.02.3-.07.46-.32.42-.63-.05-.33-.3-.54-.61-.52-.16,0-.16.01-.16.17,0,.58,0,1.16,0,1.74,0,.04,0,.07,0,.11.02.19.04.22.24.24.01,0,.02,0,.03.03h-.74s.03-.03.04-.03c.11,0,.15-.07.16-.16.01-.1.02-.2.02-.31,0-.5,0-1.01,0-1.51,0-.25-.01-.27-.23-.34Z"/>
        <path fill="#fff" stroke-width="0px" d="M8.08,7.07c-.02.11-.02.22-.06.32-.01.03-.09.06-.14.06-.22,0-.45-.01-.67-.02-.15,0-.3,0-.46-.01.19-.02.2-.15.2-.28,0-.57.02-1.15.01-1.72,0-.28.01-.25-.24-.35h1.27c-.01.12-.03.24-.04.38-.08-.24-.12-.26-.37-.27-.1,0-.19,0-.29,0-.06,0-.08.02-.08.08,0,.26,0,.52,0,.79,0,.03.04.07.06.07.16,0,.33,0,.49,0,.06,0,.11-.04.17-.06-.01.13-.02.26-.04.39-.03-.18-.14-.22-.29-.21-.1,0-.2,0-.3-.01-.06,0-.1.02-.1.09,0,.26,0,.52,0,.79,0,.14.05.21.19.22.15.01.3,0,.44-.02.06,0,.11-.08.16-.14.02-.03.03-.07.04-.11,0,0,.02,0,.03,0Z"/>
        <path fill="#fff" stroke-width="0px" d="M9.63,3.75c.21.24.43.5.66.74.07.07.19.09.26.12-.23.07-.48,0-.64-.2-.14-.17-.27-.35-.4-.53-.05-.07-.11-.11-.2-.1-.25,0-.25,0-.25.25,0,.11,0,.23,0,.34,0,.18.03.21.21.25h-.57c.11-.01.14-.1.15-.19,0-.06.01-.13.01-.19,0-.43,0-.86,0-1.29q0-.22-.17-.28c.26,0,.54-.02.82,0,.36.04.53.36.38.69-.06.13-.16.25-.26.4ZM9.07,3.19c0,.11,0,.23,0,.34,0,.11.04.16.14.17.15.01.31.04.42-.1.13-.16.14-.47.03-.67-.09-.17-.26-.24-.5-.22-.07,0-.09.04-.09.1,0,.12,0,.25,0,.37Z"/>
        <path fill="#fff" stroke-width="0px" d="M15.38,4.61h-.45s0-.09-.02-.13c-.07-.19-.14-.37-.21-.56-.02-.06-.05-.08-.12-.08-.15,0-.29,0-.44,0-.06,0-.1.02-.12.08-.05.16-.11.33-.16.49-.04.12-.02.15.12.2h-.52c.16-.02.23-.14.28-.27.19-.54.39-1.07.59-1.6.02-.04.03-.08.06-.15.03.06.05.09.06.12.2.51.39,1.02.59,1.52.02.05.04.1.06.15.05.12.13.21.27.24ZM14.38,3.01s-.02,0-.04-.01c-.08.25-.16.5-.25.75h.54c-.09-.26-.18-.5-.26-.74Z"/>
        <path fill="#fff" stroke-width="0px" d="M11.67,3.47c-.01.11-.02.2-.03.3-.03-.14-.14-.16-.26-.16q-.31-.01-.31.29c0,.15,0,.3,0,.45,0,.1.05.17.15.17.12,0,.23,0,.35,0,.12,0,.17-.1.21-.21-.01.09-.02.18-.04.26,0,.03-.07.05-.11.05-.26,0-.52,0-.78-.01-.05,0-.1,0-.15,0,.11-.02.14-.09.14-.18,0-.51.01-1.03,0-1.54,0-.18-.02-.18-.19-.24.17,0,.35,0,.52,0s.35,0,.53,0c-.01.1-.02.19-.03.28-.04-.05-.06-.12-.11-.15-.05-.03-.12-.03-.18-.04-.08,0-.16,0-.23,0-.06,0-.09.01-.09.08,0,.21,0,.42,0,.63,0,.03.03.08.05.08.18,0,.37.03.56-.04Z"/>
        <path fill="#fff" stroke-width="0px" d="M2.64,4.61c.1-.02.14-.09.14-.18,0-.51.01-1.02.02-1.53,0-.18-.02-.2-.2-.26.17,0,.35,0,.52,0s.35,0,.53,0c0,.09-.02.18-.03.28-.03-.18-.16-.19-.3-.19-.07,0-.15,0-.22,0-.07,0-.1.02-.09.09,0,.21,0,.41,0,.62,0,.03.03.08.05.08.18,0,.37.03.55-.05-.01.1-.02.2-.03.3-.03-.14-.14-.16-.25-.16-.08,0-.16,0-.24,0-.03,0-.07.05-.07.07,0,.22,0,.45,0,.67,0,.1.05.17.15.17.11,0,.23,0,.34,0,.13-.01.18-.11.2-.23,0,0,.02,0,.02,0-.01.09-.02.18-.05.27,0,.03-.07.05-.11.05-.26,0-.51,0-.77-.01-.05,0-.11,0-.16,0Z"/>
        <path fill="#fff" stroke-width="0px" d="M7.54,3.69s.1,0,.15-.02c.27-.07.39-.3.33-.58-.06-.26-.3-.42-.56-.38-.08.01-.08.06-.08.12,0,.23,0,.47,0,.7,0,.28,0,.55,0,.83,0,.18.02.2.2.25h-.53c.03-.05.1-.11.1-.18.01-.51.02-1.03.01-1.54,0-.17-.01-.17-.18-.24.26,0,.53-.01.8,0,.22.01.38.12.43.35.05.24-.05.48-.25.61-.13.08-.27.12-.42.08Z"/>
        <path fill="#fff" stroke-width="0px" d="M13.2,2.97c-.1-.24-.23-.32-.46-.28-.24.04-.35.29-.2.49.08.1.18.19.28.27.09.08.19.15.27.24.18.18.22.4.13.64-.09.22-.28.32-.52.32-.12,0-.24-.02-.35-.05-.03,0-.07-.07-.08-.11-.01-.1,0-.2.02-.3,0,.01.02.03.02.04,0,.16.08.26.23.31.17.06.33.05.46-.09.11-.12.13-.27.05-.4-.06-.11-.17-.21-.26-.3-.1-.1-.22-.19-.32-.3-.11-.11-.16-.26-.14-.42.03-.35.34-.45.61-.43.07,0,.13.03.2.03.07,0,.09.03.08.1-.01.07-.01.15-.02.23Z"/>
        <path fill="#fff" stroke-width="0px" d="M7.69,2.16h-.3c-.02-.16-.03-.32-.04-.48-.01-.16-.03-.32-.07-.48-.15.32-.31.64-.47.99-.17-.34-.32-.66-.47-.97,0,0-.02,0-.02,0,0,.07-.01.14-.02.2-.02.2-.04.4-.05.6,0,.05.04.1.05.14h-.22s.06-.08.06-.12c.05-.37.09-.74.13-1.11,0-.02,0-.05.04-.07.18.36.35.72.54,1.11.18-.39.35-.74.52-1.1h.03c.01.09.03.18.04.27.03.28.06.56.09.83.01.13.05.17.18.19Z"/>
        <path fill="#fff" stroke-width="0px" d="M9.28.84c.42.02.68.29.66.67-.02.37-.28.71-.78.67-.35-.03-.6-.32-.58-.73.02-.36.33-.63.7-.61ZM9.79,1.54c0-.18-.05-.35-.17-.48-.24-.28-.71-.21-.84.13-.09.23-.07.47.06.68.11.2.32.29.54.25.19-.03.33-.18.38-.4.01-.06.02-.13.03-.19Z"/>
        <path fill="#fff" stroke-width="0px" d="M4.08,2.16h-.28c.02-.05.05-.11.06-.17,0-.33,0-.65,0-.98,0-.05-.05-.1-.07-.15.12,0,.28,0,.43,0,.3.01.43.26.28.52-.04.07-.09.12-.15.2.19.2.3.49.59.57-.2.05-.36-.04-.47-.23-.05-.07-.12-.14-.16-.21-.06-.12-.17-.12-.27-.11-.02,0-.06.04-.06.07,0,.13,0,.26.02.38,0,.04.05.07.08.1ZM3.98,1.23c0,.07,0,.15,0,.22,0,.03.02.07.04.09.07.05.25.03.31-.03.1-.08.12-.28.06-.43-.05-.13-.16-.19-.3-.19-.08,0-.12.03-.11.11,0,.07,0,.14,0,.21Z"/>
        <path fill="#fff" stroke-width="0px" d="M5.88,9.31s.04-.08.04-.13c0-.29,0-.59,0-.88,0-.04-.04-.09-.05-.11.19,0,.41-.02.63,0,.28.03.45.25.45.53,0,.29-.18.54-.46.59-.1.02-.21.02-.32.02-.11,0-.21-.01-.3-.02ZM6.04,8.71s0,0,0,0c0,.14,0,.28,0,.42,0,.07.03.12.1.14.2.04.39.03.54-.12.14-.15.16-.34.11-.53-.09-.35-.4-.44-.69-.41-.03,0-.07.07-.07.1,0,.13,0,.26,0,.39Z"/>
        <path fill="#fff" stroke-width="0px" d="M10.38,10.88c-.35,0-.6-.25-.59-.6,0-.33.26-.59.6-.59.36,0,.6.23.61.57,0,.36-.25.62-.61.62ZM10.87,10.3c-.04-.13-.06-.25-.12-.36-.09-.16-.23-.23-.42-.22-.19.01-.33.11-.39.3-.06.18-.04.36.04.53.16.32.58.38.76.1.06-.1.08-.23.12-.35Z"/>
        <path fill="#fff" stroke-width="0px" d="M9.36,10.64c0-.29,0-.55,0-.82,0-.04-.05-.08-.06-.11h.18c-.01.08-.03.16-.03.24,0,.26,0,.52,0,.78,0,.04,0,.08,0,.12-.01,0-.02.01-.03.02-.29-.31-.58-.61-.88-.93-.04.17,0,.83.06.91h-.16c.05-.38,0-.76.03-1.16.31.33.6.64.9.96Z"/>
        <path fill="#fff" stroke-width="0px" d="M2.64.87c.15,0,.29,0,.44,0,.22,0,.34.11.35.28,0,.22-.13.4-.34.42-.03,0-.06,0-.09,0,.13-.02.23-.07.28-.19.05-.12.03-.24-.05-.34-.03-.04-.08-.08-.13-.1-.17-.07-.23-.03-.23.15,0,.3,0,.6,0,.9,0,.08,0,.17.12.18h-.32s.05-.08.05-.13c0-.33,0-.67,0-1,0-.07,0-.15-.1-.17Z"/>
        <path fill="#fff" stroke-width="0px" d="M5.1,2.17s.05-.09.05-.13c0-.34.01-.67,0-1.01,0-.05-.04-.11-.06-.16h.62c0,.05,0,.1-.01.19-.05-.14-.14-.13-.23-.13-.2,0-.18-.03-.18.18,0,.09,0,.18,0,.27,0,.03.04.07.07.07.05.01.11,0,.16,0,.05,0,.1-.01.16-.02,0,.06-.01.11-.02.17-.05-.08-.28-.14-.35-.09-.02.01-.03.04-.03.06,0,.13,0,.27,0,.4,0,.08.04.13.13.13.12,0,.26.04.33-.12,0,.17,0,.18-.16.18-.17,0-.33,0-.49,0Z"/>
        <path fill="#fff" stroke-width="0px" d="M8.17,10.86c-.05,0-.11,0-.17,0-.05-.12-.09-.24-.13-.36-.02-.07-.06-.09-.13-.09-.31,0-.24-.05-.34.24-.02.06-.03.13-.04.2h-.13c.03-.07.07-.14.1-.22.1-.28.2-.56.31-.84.01-.03.02-.06.05-.11.02.05.04.09.05.12.11.27.21.55.32.82.03.08.08.15.13.24ZM7.67,9.92s-.02,0-.03,0c-.05.14-.09.28-.14.43h.32c-.05-.15-.1-.29-.15-.43Z"/>
        <path fill="#fff" stroke-width="0px" d="M7.99.87h.25s-.05.09-.05.14c0,.33,0,.66,0,.99,0,.07.01.14.11.16h-.31s.06-.1.06-.15c0-.34,0-.67,0-1.01,0-.04-.04-.09-.06-.13Z"/>
        <path fill="#fff" stroke-width="0px" d="M7.25,8.18h.56v.12c-.09-.1-.2-.08-.31-.08-.02,0-.05.04-.05.06,0,.11,0,.23,0,.34,0,.02.05.06.07.06.09,0,.17,0,.27,0,0,.02,0,.06,0,.07-.1,0-.2-.02-.29-.02-.02,0-.05.04-.05.06,0,.12,0,.24,0,.36,0,.07.04.1.1.11.13.03.24,0,.31-.1,0,.15-.02.16-.16.15-.14,0-.28,0-.43,0,.11-.14.09-1.07-.01-1.15Z"/>
        <path fill="#fff" stroke-width="0px" d="M8.22,9.32c.02-.08.04-.14.04-.21,0-.26,0-.52,0-.78,0-.05-.04-.11-.05-.16h.23s-.05.06-.05.09c0,.3,0,.59,0,.89,0,.03.03.08.06.09.1.06.3.02.38-.07.01.12,0,.14-.12.14-.17,0-.33,0-.48,0Z"/>
        <path fill="#fff" stroke-width="0px" d="M8.75,9.55c.05-.1.12-.12.22-.08.06.03.12.03.19.05-.04.07-.11.06-.18.02-.07-.04-.15-.08-.22,0Z"/>
      </g>
      <g>
        <path fill="#fff" stroke-width="0px" d="M13.92,10.94l-.22.59h-1.82v-.08c.53-.5.91-.9,1.13-1.2.22-.31.33-.59.33-.85,0-.1-.02-.19-.05-.27-.03-.08-.08-.15-.13-.21s-.12-.11-.19-.14-.15-.05-.24-.05c-.15,0-.29.04-.41.13-.12.09-.21.22-.27.39h-.08c.04-.28.14-.5.29-.65.16-.15.35-.22.59-.22.12,0,.24.02.35.07.11.04.2.1.28.18.08.07.14.16.19.26.05.1.07.2.07.31,0,.16-.03.3-.08.43-.06.13-.11.24-.17.32-.06.08-.14.19-.25.33-.21.23-.37.41-.49.54-.12.13-.25.25-.37.37h.81c.1,0,.19,0,.26,0,.07,0,.13-.02.18-.03.05-.02.09-.04.12-.08.03-.03.07-.08.1-.14h.08Z"/>
        <path fill="#fff" stroke-width="0px" d="M14.28,10.01c0-.36.05-.66.16-.91.1-.22.22-.4.37-.53.15-.13.31-.19.48-.19.14,0,.26.04.38.12.12.08.22.19.31.33s.16.31.21.5c.05.19.08.4.08.63,0,.36-.05.66-.15.91-.05.12-.11.23-.18.32s-.14.17-.21.22c-.07.06-.15.1-.23.13s-.16.04-.23.04c-.13,0-.26-.04-.38-.12-.12-.08-.22-.19-.31-.33s-.16-.31-.21-.5-.08-.4-.08-.63ZM14.73,10.07c0,.19.01.37.03.53.02.17.05.31.1.44.04.12.1.22.17.3s.15.11.24.11c.09,0,.17-.03.24-.09.07-.06.13-.15.17-.28.05-.13.08-.29.11-.49s.04-.44.04-.72c0-.2-.01-.38-.03-.55-.02-.16-.06-.3-.1-.42-.05-.12-.1-.2-.17-.27s-.15-.1-.24-.1c-.1,0-.19.04-.26.12-.07.08-.13.19-.17.33-.04.14-.08.3-.1.49-.02.19-.03.38-.03.59Z"/>
        <path fill="#fff" stroke-width="0px" d="M18.58,10.94l-.22.59h-1.82v-.08c.53-.5.91-.9,1.13-1.2.22-.31.33-.59.33-.85,0-.1-.02-.19-.05-.27-.03-.08-.08-.15-.13-.21s-.12-.11-.19-.14-.15-.05-.24-.05c-.15,0-.29.04-.41.13-.12.09-.21.22-.27.39h-.08c.04-.28.14-.5.29-.65.16-.15.35-.22.59-.22.12,0,.24.02.35.07.11.04.2.1.28.18.08.07.14.16.19.26.05.1.07.2.07.31,0,.16-.03.3-.08.43-.06.13-.11.24-.17.32-.06.08-.14.19-.25.33-.21.23-.37.41-.49.54-.12.13-.25.25-.37.37h.81c.1,0,.19,0,.26,0,.07,0,.13-.02.18-.03.05-.02.09-.04.12-.08.03-.03.07-.08.1-.14h.08Z"/>
        <path fill="#fff" stroke-width="0px" d="M19.01,9.03c.09-.21.2-.37.33-.48s.3-.17.5-.17c.1,0,.2.02.29.05s.16.08.23.14c.06.06.11.12.15.2.04.08.05.16.05.24,0,.23-.14.46-.42.7.19.07.34.18.43.32.1.14.14.3.14.49,0,.16-.03.3-.09.43-.06.13-.14.25-.25.34-.11.1-.23.17-.38.22-.15.05-.32.08-.5.08-.11,0-.19,0-.26-.02s-.12-.03-.16-.06-.07-.05-.08-.08-.02-.06-.02-.09c0-.05.02-.1.06-.12.04-.03.09-.04.15-.04.01,0,.03,0,.04,0s.03,0,.04.01.04.02.07.03.06.03.11.06c.05.03.1.05.13.07.03.01.06.03.09.03.02,0,.05.01.07.01h.08c.08,0,.15-.02.22-.05.07-.03.13-.08.18-.13.05-.06.1-.12.13-.19.03-.07.05-.15.05-.23,0-.05,0-.1-.02-.15-.01-.05-.03-.1-.05-.15-.02-.05-.04-.1-.07-.14-.03-.04-.05-.07-.08-.1-.03-.03-.07-.06-.12-.09s-.1-.05-.15-.08c-.05-.02-.11-.04-.17-.05s-.12-.02-.17-.02h-.07v-.07c.12-.02.22-.05.31-.09.09-.05.16-.1.22-.17s.1-.14.13-.22c.03-.08.05-.16.05-.24s-.01-.15-.04-.21c-.03-.06-.06-.12-.11-.17-.05-.05-.1-.08-.16-.11-.06-.03-.13-.04-.2-.04-.24,0-.43.12-.59.38l-.07-.04Z"/>
      </g>
    </g>
  </g>
</svg>
