<svg width="20" height="20" viewBox="0 0 20 20" fill="none" xmlns="http://www.w3.org/2000/svg">
<path d="M8.51566 19.8366H8.10089C7.88768 19.6781 7.6451 19.5469 7.46583 19.3559C5.30507 17.0564 3.15241 14.7502 1.00785 12.4375C0.83212 12.2486 0.703993 12.0131 0.557129 11.7988V11.382C0.65487 11.0993 0.85339 10.8942 1.06356 10.6926C4.51875 7.39727 7.97158 4.09939 11.422 0.798988C11.544 0.676331 11.6895 0.57969 11.8498 0.514917C12.0102 0.450143 12.182 0.418583 12.3549 0.422146C14.5781 0.427718 16.8013 0.424679 19.0246 0.425185C19.613 0.425185 19.9625 0.776195 19.963 1.3683C19.963 3.61669 19.9559 5.86559 19.9685 8.11448C19.9711 8.57692 19.8247 8.93047 19.4935 9.25463C16.0535 12.6205 12.6187 15.9909 9.18921 19.3655C8.98967 19.5641 8.78811 19.7485 8.51566 19.8366ZM13.5328 4.90879C13.3227 5.12305 13.0993 5.3449 12.8841 5.57384C12.8117 5.65083 12.7509 5.66045 12.6537 5.62044C12.1194 5.40315 11.5654 5.37022 11.0002 5.46494C9.54776 5.70806 8.46096 7.1511 8.6134 8.61339C8.67257 9.26605 8.95333 9.87878 9.409 10.3497C9.72045 10.6774 9.7635 11.0791 9.56751 11.4488C9.37608 11.8059 8.95321 12.0349 8.59516 11.9761C8.38783 11.9448 8.19526 11.8501 8.04385 11.705C7.89244 11.5599 7.7896 11.3715 7.74943 11.1657C7.68309 10.84 7.80817 10.5756 7.99707 10.3436L6.63984 8.9877C6.52278 9.11309 6.41207 9.24428 6.30813 9.38075C5.71156 10.2418 5.67915 11.1637 6.03517 12.1194C6.07568 12.2288 6.07568 12.2962 5.98452 12.3793C5.75764 12.5885 5.54191 12.8093 5.32617 13.02L6.68745 14.3769C6.93256 14.1591 7.18324 13.9287 7.44709 13.7109C7.47688 13.6893 7.51102 13.6744 7.54714 13.6673C7.58326 13.6602 7.6205 13.6611 7.65625 13.6699C8.87167 14.0999 9.95644 13.8872 10.8857 12.9906C11.5588 12.3403 11.8044 11.5324 11.6727 10.61C11.5795 9.95513 11.264 9.41722 10.8159 8.93857C10.4431 8.54147 10.4614 7.98735 10.8341 7.61051C11.0008 7.43428 11.229 7.32907 11.4713 7.31671C11.7136 7.30436 11.9513 7.38581 12.1351 7.54415C12.5544 7.90226 12.6137 8.4351 12.2835 8.87982C12.2622 8.90919 12.2435 8.94009 12.2404 8.94465L13.5799 10.2864C13.5987 10.2704 13.6166 10.2535 13.6336 10.2357C13.6802 10.1851 13.7283 10.1344 13.7699 10.0782C14.4282 9.18929 14.566 8.22034 14.1968 7.18099C14.1547 7.06247 14.1588 6.99206 14.254 6.90444C14.4804 6.69778 14.6951 6.47795 14.9002 6.27687L13.5328 4.90879ZM18.6002 2.75208C18.6002 2.23798 18.1469 1.78972 17.6324 1.78972C17.1179 1.78972 16.6641 2.24912 16.6661 2.75765C16.6681 3.26619 17.1315 3.7266 17.6374 3.72407C18.1434 3.72154 18.6012 3.26315 18.6002 2.75208Z" fill="#ADD53D"/>
</svg>
