<svg width="22" height="22" viewBox="0 0 22 22" fill="none" xmlns="http://www.w3.org/2000/svg">
<path d="M19.6739 22C19.6056 21.999 19.5404 21.9711 19.4925 21.9224C19.4446 21.8737 19.4177 21.8081 19.4177 21.7398V20.9135C19.4257 20.8506 19.4563 20.7928 19.5039 20.7509C19.5514 20.709 19.6126 20.6859 19.6759 20.6859C19.7393 20.6859 19.8005 20.709 19.848 20.7509C19.8956 20.7928 19.9262 20.8506 19.9342 20.9135V21.7398C19.9342 21.8088 19.9067 21.875 19.8579 21.9238C19.8091 21.9726 19.7429 22 19.6739 22Z" fill="#ADD53D"/>
<path d="M15.1914 22C15.1224 22 15.0562 21.9726 15.0074 21.9238C14.9586 21.875 14.9312 21.8088 14.9312 21.7398V20.9135C14.9391 20.8506 14.9697 20.7928 15.0173 20.7509C15.0648 20.709 15.126 20.6859 15.1894 20.6859C15.2527 20.6859 15.3139 20.709 15.3615 20.7509C15.409 20.7928 15.4396 20.8506 15.4476 20.9135V21.7398C15.4476 21.8081 15.4207 21.8737 15.3728 21.9224C15.3249 21.9711 15.2597 21.999 15.1914 22Z" fill="#ADD53D"/>
<path d="M17.4348 22C17.3658 22 17.2996 21.9726 17.2508 21.9238C17.202 21.875 17.1746 21.8088 17.1746 21.7398V20.9135C17.1825 20.8506 17.2132 20.7928 17.2607 20.7509C17.3082 20.709 17.3694 20.6859 17.4328 20.6859C17.4961 20.6859 17.5573 20.709 17.6049 20.7509C17.6524 20.7928 17.683 20.8506 17.691 20.9135V21.7398C17.691 21.8081 17.6641 21.8737 17.6162 21.9224C17.5683 21.9711 17.5032 21.999 17.4348 22Z" fill="#ADD53D"/>
<path d="M12.948 22C12.879 22 12.8128 21.9726 12.764 21.9238C12.7152 21.875 12.6877 21.8088 12.6877 21.7398V20.9135C12.6957 20.8506 12.7263 20.7928 12.7739 20.7509C12.8214 20.709 12.8826 20.6859 12.946 20.6859C13.0093 20.6859 13.0705 20.709 13.118 20.7509C13.1656 20.7928 13.1962 20.8506 13.2042 20.9135V21.7398C13.2042 21.8081 13.1773 21.8737 13.1294 21.9224C13.0815 21.9711 13.0163 21.999 12.948 22Z" fill="#ADD53D"/>
<path d="M8.46123 22C8.39292 21.999 8.32777 21.9711 8.27985 21.9224C8.23192 21.8737 8.20507 21.8081 8.20508 21.7398V20.9135C8.21305 20.8506 8.24367 20.7928 8.29121 20.7509C8.33874 20.709 8.39993 20.6859 8.46329 20.6859C8.52666 20.6859 8.58784 20.709 8.63538 20.7509C8.68292 20.7928 8.71354 20.8506 8.72151 20.9135V21.7398C8.72151 21.8088 8.69409 21.875 8.64528 21.9238C8.59646 21.9726 8.53026 22 8.46123 22Z" fill="#ADD53D"/>
<path d="M10.7046 22C10.6363 21.999 10.5712 21.9711 10.5233 21.9224C10.4753 21.8737 10.4485 21.8081 10.4485 21.7398V20.9135C10.4565 20.8506 10.4871 20.7928 10.5346 20.7509C10.5822 20.709 10.6433 20.6859 10.7067 20.6859C10.7701 20.6859 10.8313 20.709 10.8788 20.7509C10.9263 20.7928 10.957 20.8506 10.9649 20.9135V21.7398C10.9649 21.8088 10.9375 21.875 10.8887 21.9238C10.8399 21.9726 10.7737 22 10.7046 22Z" fill="#ADD53D"/>
<path d="M6.21782 22C6.14951 21.999 6.08436 21.9711 6.03644 21.9224C5.98852 21.8737 5.96166 21.8081 5.96167 21.7398V20.9135C5.96964 20.8506 6.00026 20.7928 6.0478 20.7509C6.09534 20.709 6.15652 20.6859 6.21989 20.6859C6.28325 20.6859 6.34444 20.709 6.39197 20.7509C6.43951 20.7928 6.47013 20.8506 6.4781 20.9135V21.7398C6.4781 21.8088 6.45068 21.875 6.40187 21.9238C6.35305 21.9726 6.28685 22 6.21782 22Z" fill="#ADD53D"/>
<path d="M21.7398 22H5.62714C5.56428 21.9921 5.50649 21.9614 5.46459 21.9139C5.4227 21.8664 5.39959 21.8052 5.39959 21.7418C5.39959 21.6785 5.4227 21.6173 5.46459 21.5697C5.50649 21.5222 5.56428 21.4916 5.62714 21.4836H21.4837V0.880032L5.81306 16.5548C5.76358 16.5999 5.69863 16.6242 5.6317 16.6226C5.56477 16.6211 5.50101 16.5938 5.45368 16.5465C5.40634 16.4991 5.37906 16.4354 5.37751 16.3684C5.37596 16.3015 5.40026 16.2366 5.44536 16.1871L21.558 0.074398C21.5942 0.0385201 21.6403 0.0142459 21.6903 0.00467863C21.7404 -0.00488865 21.7921 0.000685699 21.839 0.020689C21.8865 0.03906 21.9273 0.0713965 21.9561 0.113436C21.9848 0.155475 22.0002 0.205244 22.0001 0.256182V21.7398C22.0001 21.8088 21.9727 21.875 21.9239 21.9238C21.8751 21.9726 21.8088 22 21.7398 22ZM18.3438 18.5916H8.54395C8.49269 18.5908 8.44274 18.5752 8.4002 18.5466C8.35765 18.518 8.32434 18.4777 8.30432 18.4305C8.28591 18.383 8.28158 18.3313 8.29184 18.2815C8.3021 18.2316 8.32652 18.1858 8.36216 18.1495L18.1785 8.3621C18.2148 8.32645 18.2606 8.30203 18.3104 8.29177C18.3603 8.28151 18.412 8.28585 18.4594 8.30426C18.507 8.32383 18.5476 8.35703 18.5763 8.39968C18.605 8.44232 18.6204 8.4925 18.6206 8.54388V18.3437C18.619 18.3783 18.6105 18.4122 18.5957 18.4434C18.5809 18.4747 18.56 18.5027 18.5342 18.5257C18.5084 18.5488 18.4783 18.5665 18.4456 18.5778C18.4129 18.5891 18.3783 18.5938 18.3438 18.5916ZM9.1678 18.0875H18.0876V9.16773L9.1678 18.0875Z" fill="#ADD53D"/>
<path d="M4.38761 19.5211H0.25615C0.187838 19.52 0.122691 19.4921 0.0747683 19.4435C0.026846 19.3948 -8.60531e-06 19.3292 2.06847e-09 19.2608V3.56132C0.000197925 3.5134 0.013023 3.46637 0.0371831 3.42498L2.10291 0.119817C2.12871 0.0855956 2.1621 0.0578319 2.20046 0.0387134C2.23882 0.0195948 2.28109 0.00964355 2.32394 0.00964355C2.3668 0.00964355 2.40907 0.0195948 2.44743 0.0387134C2.48578 0.0578319 2.51918 0.0855956 2.54498 0.119817L4.6107 3.42498C4.63486 3.46637 4.64769 3.5134 4.64789 3.56132V19.2608C4.64789 19.295 4.64116 19.3289 4.62807 19.3605C4.61499 19.392 4.59582 19.4207 4.57165 19.4449C4.54748 19.4691 4.51879 19.4882 4.48721 19.5013C4.45563 19.5144 4.42179 19.5211 4.38761 19.5211ZM0.516432 19.0047H4.13146V3.63569L2.32188 0.743667L0.516432 3.63569V19.0047Z" fill="#ADD53D"/>
<path d="M4.38757 3.8216H0.256119C0.193259 3.81363 0.135464 3.78301 0.0935709 3.73547C0.0516779 3.68793 0.0285645 3.62675 0.0285645 3.56338C0.0285645 3.50002 0.0516779 3.43883 0.0935709 3.39129C0.135464 3.34376 0.193259 3.31313 0.256119 3.30517H4.38757C4.42422 3.30052 4.46144 3.30373 4.49676 3.31458C4.53207 3.32544 4.56467 3.34368 4.59239 3.36811C4.62011 3.39253 4.64231 3.42258 4.65751 3.45625C4.67272 3.48992 4.68058 3.52644 4.68058 3.56338C4.68058 3.60033 4.67272 3.63685 4.65751 3.67052C4.64231 3.70419 4.62011 3.73423 4.59239 3.75866C4.56467 3.78308 4.53207 3.80133 4.49676 3.81218C4.46144 3.82303 4.42422 3.82624 4.38757 3.8216Z" fill="#ADD53D"/>
<path d="M2.32182 19.5211C2.25351 19.52 2.18836 19.4921 2.14044 19.4434C2.09252 19.3947 2.06567 19.3291 2.06567 19.2608V3.56129C2.07364 3.49843 2.10426 3.44064 2.1518 3.39875C2.19934 3.35685 2.26053 3.33374 2.32389 3.33374C2.38725 3.33374 2.44844 3.35685 2.49598 3.39875C2.54352 3.44064 2.57414 3.49843 2.58211 3.56129V19.2608C2.58211 19.295 2.57537 19.3289 2.56229 19.3604C2.54921 19.392 2.53004 19.4207 2.50587 19.4449C2.4817 19.469 2.45301 19.4882 2.42143 19.5013C2.38985 19.5144 2.356 19.5211 2.32182 19.5211Z" fill="#ADD53D"/>
<path d="M3.56131 21.9999H1.08244C0.794981 21.9989 0.519667 21.8839 0.316788 21.6802C0.113908 21.4766 -2.07795e-06 21.2008 0 20.9134L0 19.2608C0 19.1929 0.0269872 19.1277 0.0750247 19.0797C0.123062 19.0316 0.188215 19.0046 0.25615 19.0046H4.38761C4.45593 19.0046 4.52151 19.0315 4.57021 19.0794C4.6189 19.1273 4.6468 19.1925 4.64789 19.2608V20.9134C4.64789 21.0561 4.61978 21.1974 4.56518 21.3292C4.51057 21.461 4.43053 21.5808 4.32964 21.6817C4.22874 21.7826 4.10896 21.8626 3.97713 21.9172C3.8453 21.9718 3.70401 21.9999 3.56131 21.9999ZM0.516432 19.5211V20.9134C0.516428 21.0639 0.575929 21.2083 0.681959 21.3151C0.787989 21.4219 0.931948 21.4824 1.08244 21.4835H3.56131C3.71253 21.4835 3.85754 21.4234 3.96446 21.3165C4.07139 21.2096 4.13146 21.0646 4.13146 20.9134V19.5211H0.516432Z" fill="#ADD53D"/>
</svg>
