<svg width="23" height="23" viewBox="0 0 23 23" fill="none" xmlns="http://www.w3.org/2000/svg">
<path d="M18.5123 5.40325C18.1298 5.4041 17.7556 5.29155 17.437 5.07983C17.1184 4.8681 16.8697 4.5667 16.7224 4.2137C16.575 3.8607 16.5356 3.47194 16.609 3.09654C16.6825 2.72114 16.8656 2.37593 17.1352 2.10454C17.4048 1.83315 17.7487 1.64775 18.1236 1.57177C18.4985 1.49578 18.8876 1.53262 19.2415 1.67762C19.5955 1.82263 19.8986 2.06929 20.1124 2.38646C20.3263 2.70363 20.4413 3.07706 20.443 3.45958C20.4442 3.71406 20.3951 3.96626 20.2986 4.20174C20.2022 4.43722 20.0602 4.65137 19.8809 4.83191C19.7015 5.01245 19.4883 5.15585 19.2535 5.25389C19.0187 5.35193 18.7668 5.40268 18.5123 5.40325ZM18.5123 2.07311C18.2358 2.07225 17.9653 2.15357 17.7352 2.30673C17.505 2.4599 17.3255 2.67799 17.2195 2.93335C17.1135 3.1887 17.0858 3.46979 17.1398 3.74093C17.1939 4.01208 17.3273 4.26105 17.5231 4.45625C17.7189 4.65144 17.9683 4.78406 18.2396 4.83726C18.5109 4.89046 18.7919 4.86185 19.0469 4.75506C19.3019 4.64827 19.5195 4.46811 19.6719 4.23746C19.8244 4.0068 19.9048 3.73606 19.9031 3.45958C19.9008 3.09182 19.7534 2.73983 19.493 2.48019C19.2325 2.22054 18.8801 2.07424 18.5123 2.07311Z" fill="#ADD53D"/>
<path d="M22.296 19.0694H15.3852C15.3469 19.0743 15.308 19.0709 15.271 19.0596C15.2341 19.0482 15.2 19.0292 15.1711 19.0036C15.1421 18.9781 15.1189 18.9467 15.103 18.9115C15.0871 18.8763 15.0789 18.8381 15.0789 18.7995C15.0789 18.7608 15.0871 18.7227 15.103 18.6875C15.1189 18.6523 15.1421 18.6209 15.1711 18.5953C15.2 18.5698 15.2341 18.5507 15.271 18.5394C15.308 18.528 15.3469 18.5247 15.3852 18.5295H22.296C22.3198 18.5299 22.3434 18.5251 22.365 18.5152C22.3867 18.5054 22.4059 18.4908 22.4212 18.4726C22.4365 18.4544 22.4476 18.433 22.4535 18.4099C22.4595 18.3869 22.4603 18.3628 22.4558 18.3395L21.769 14.8279C21.7622 14.7933 21.7623 14.7577 21.7693 14.7231C21.7762 14.6886 21.7899 14.6557 21.8096 14.6264C21.8292 14.5972 21.8544 14.572 21.8838 14.5525C21.9132 14.533 21.9461 14.5194 21.9807 14.5126C22.0153 14.5058 22.0509 14.5059 22.0855 14.5128C22.12 14.5198 22.1529 14.5335 22.1822 14.5531C22.2114 14.5728 22.2366 14.598 22.2561 14.6274C22.2756 14.6567 22.2892 14.6897 22.296 14.7243L22.9827 18.2358C23.0034 18.3371 23.0009 18.4418 22.9755 18.542C22.9501 18.6422 22.9024 18.7354 22.8359 18.8146C22.7705 18.8945 22.6881 18.9588 22.5947 19.0029C22.5013 19.047 22.3993 19.0697 22.296 19.0694Z" fill="#ADD53D"/>
<path d="M21.6265 15.1215C21.4043 15.1217 21.1889 15.0448 21.0171 14.9037C20.8454 14.7627 20.7279 14.5664 20.6849 14.3484L19.9463 10.6986C19.9356 10.6624 19.9325 10.6244 19.9372 10.587C19.942 10.5495 19.9545 10.5135 19.9739 10.4811C19.9934 10.4488 20.0193 10.4208 20.0502 10.399C20.081 10.3773 20.116 10.3621 20.153 10.3546C20.19 10.3471 20.2281 10.3473 20.265 10.3554C20.3019 10.3634 20.3367 10.379 20.3672 10.4012C20.3978 10.4234 20.4233 10.4517 20.4423 10.4843C20.4613 10.5169 20.4733 10.5531 20.4776 10.5907L21.2162 14.2577C21.241 14.3648 21.3058 14.4584 21.3973 14.5194C21.4888 14.5804 21.6001 14.6042 21.7086 14.586C21.8323 14.5638 21.9504 14.517 22.0557 14.4483C22.161 14.3796 22.2514 14.2904 22.3216 14.186C22.3917 14.0816 22.4401 13.9642 22.4639 13.8407C22.4877 13.7172 22.4864 13.5902 22.4601 13.4673L21.2507 7.56718C21.1971 7.30535 21.0548 7.07002 20.8479 6.90087C20.6409 6.73171 20.382 6.63906 20.1148 6.63854H18.5123C18.4466 6.63021 18.3862 6.59819 18.3424 6.5485C18.2986 6.4988 18.2744 6.43483 18.2744 6.36859C18.2744 6.30234 18.2986 6.23837 18.3424 6.18868C18.3862 6.13898 18.4466 6.10696 18.5123 6.09863H20.1148C20.5048 6.10436 20.8815 6.24194 21.1834 6.48898C21.4854 6.73602 21.6948 7.07798 21.7777 7.4592L22.9698 13.3593C23.0472 13.7419 22.9695 14.1396 22.7538 14.465C22.6475 14.6273 22.5098 14.7667 22.3488 14.875C22.1879 14.9833 22.0069 15.0583 21.8165 15.0956C21.7542 15.1104 21.6905 15.1191 21.6265 15.1215Z" fill="#ADD53D"/>
<path d="M17.5274 23.0042C17.3694 23.0172 17.2104 22.9977 17.0603 22.9467C16.9102 22.8958 16.7721 22.8145 16.6547 22.708C16.5372 22.6015 16.4429 22.472 16.3776 22.3276C16.3122 22.1831 16.2773 22.0268 16.2749 21.8682V18.8016C16.27 18.7633 16.2734 18.7243 16.2847 18.6874C16.2961 18.6505 16.3151 18.6164 16.3407 18.5874C16.3662 18.5585 16.3976 18.5353 16.4328 18.5194C16.468 18.5035 16.5062 18.4952 16.5448 18.4952C16.5834 18.4952 16.6216 18.5035 16.6568 18.5194C16.692 18.5353 16.7234 18.5585 16.749 18.5874C16.7745 18.6164 16.7936 18.6505 16.8049 18.6874C16.8163 18.7243 16.8196 18.7633 16.8148 18.8016V21.8682C16.8148 22.3002 17.1733 22.4643 17.5274 22.4643C17.8816 22.4643 18.2444 22.2829 18.2444 21.8682V18.8016C18.2396 18.7633 18.2429 18.7243 18.2543 18.6874C18.2656 18.6505 18.2847 18.6164 18.3102 18.5874C18.3358 18.5585 18.3672 18.5353 18.4024 18.5194C18.4376 18.5035 18.4758 18.4952 18.5144 18.4952C18.553 18.4952 18.5912 18.5035 18.6264 18.5194C18.6616 18.5353 18.693 18.5585 18.7185 18.5874C18.7441 18.6164 18.7632 18.6505 18.7745 18.6874C18.7858 18.7243 18.7892 18.7633 18.7843 18.8016V21.8682C18.782 22.0272 18.7469 22.1839 18.6813 22.3287C18.6157 22.4734 18.521 22.6031 18.4031 22.7097C18.2852 22.8163 18.1466 22.8974 17.9959 22.9481C17.8453 22.9988 17.6858 23.0179 17.5274 23.0042Z" fill="#ADD53D"/>
<path d="M19.4972 23.0042C19.3392 23.0172 19.1802 22.9977 19.03 22.9467C18.8799 22.8958 18.7418 22.8145 18.6244 22.708C18.5069 22.6015 18.4126 22.472 18.3473 22.3276C18.282 22.1831 18.247 22.0268 18.2446 21.8682V18.8016C18.2397 18.7633 18.2431 18.7243 18.2544 18.6874C18.2658 18.6505 18.2849 18.6164 18.3104 18.5874C18.3359 18.5585 18.3673 18.5353 18.4025 18.5194C18.4377 18.5035 18.4759 18.4952 18.5145 18.4952C18.5532 18.4952 18.5913 18.5035 18.6265 18.5194C18.6617 18.5353 18.6932 18.5585 18.7187 18.5874C18.7442 18.6164 18.7633 18.6505 18.7747 18.6874C18.786 18.7243 18.7894 18.7633 18.7845 18.8016V21.8682C18.7845 22.3002 19.143 22.4643 19.4972 22.4643C19.8514 22.4643 20.2098 22.2829 20.2098 21.8682V18.8016C20.205 18.7633 20.2083 18.7243 20.2197 18.6874C20.231 18.6505 20.2501 18.6164 20.2757 18.5874C20.3012 18.5585 20.3326 18.5353 20.3678 18.5194C20.403 18.5035 20.4412 18.4952 20.4798 18.4952C20.5184 18.4952 20.5566 18.5035 20.5918 18.5194C20.627 18.5353 20.6584 18.5585 20.684 18.5874C20.7095 18.6164 20.7286 18.6505 20.7399 18.6874C20.7513 18.7243 20.7546 18.7633 20.7498 18.8016V21.8682C20.7473 22.0268 20.7124 22.1831 20.647 22.3276C20.5817 22.472 20.4874 22.6015 20.37 22.708C20.2525 22.8145 20.1144 22.8958 19.9643 22.9467C19.8142 22.9977 19.6552 23.0172 19.4972 23.0042Z" fill="#ADD53D"/>
<path d="M15.5104 7.77891H15.4586C15.3883 7.76433 15.3266 7.72256 15.2869 7.66269C15.2473 7.60282 15.2329 7.5297 15.2469 7.45928C15.33 7.07735 15.5401 6.73485 15.8429 6.48773C16.1457 6.24062 16.5234 6.10348 16.9142 6.09872H18.5123C18.5506 6.09386 18.5895 6.09722 18.6264 6.10856C18.6634 6.11991 18.6974 6.13898 18.7264 6.16452C18.7554 6.19006 18.7786 6.22147 18.7945 6.25667C18.8104 6.29187 18.8186 6.33005 18.8186 6.36867C18.8186 6.40729 18.8104 6.44547 18.7945 6.48067C18.7786 6.51587 18.7554 6.54729 18.7264 6.57282C18.6974 6.59836 18.6634 6.61743 18.6264 6.62878C18.5895 6.64012 18.5506 6.64348 18.5123 6.63862H16.9142C16.6464 6.63896 16.3869 6.73145 16.1792 6.90056C15.9716 7.06966 15.8284 7.30508 15.7739 7.56726C15.761 7.62745 15.7277 7.68135 15.6798 7.71989C15.6318 7.75844 15.572 7.77928 15.5104 7.77891Z" fill="#ADD53D"/>
<path d="M5.8829 23.0042H5.66694C5.30914 23.0031 4.96638 22.8601 4.71378 22.6067C4.46118 22.3533 4.31933 22.0101 4.31934 21.6523C4.32767 21.5866 4.35968 21.5261 4.40938 21.4823C4.45908 21.4385 4.52305 21.4144 4.58929 21.4144C4.65553 21.4144 4.7195 21.4385 4.7692 21.4823C4.8189 21.5261 4.85091 21.5866 4.85924 21.6523C4.85924 21.8669 4.9442 22.0728 5.09555 22.2249C5.2469 22.3771 5.45233 22.4632 5.66694 22.4643H5.8829C5.98954 22.4643 6.09513 22.4433 6.19365 22.4025C6.29217 22.3617 6.38169 22.3019 6.45709 22.2265C6.53249 22.1511 6.5923 22.0615 6.63311 21.963C6.67392 21.8645 6.69492 21.7589 6.69492 21.6523V13.0138C6.70325 12.9481 6.73527 12.8876 6.78497 12.8438C6.83466 12.8 6.89863 12.7759 6.96488 12.7759C7.03112 12.7759 7.09509 12.8 7.14479 12.8438C7.19448 12.8876 7.2265 12.9481 7.23483 13.0138V21.6523C7.23483 22.0108 7.09239 22.3547 6.83886 22.6082C6.58532 22.8618 6.24146 23.0042 5.8829 23.0042Z" fill="#ADD53D"/>
<path d="M3.50717 23.0042H3.29121C2.93341 23.0031 2.59065 22.8601 2.33804 22.6067C2.08544 22.3533 1.9436 22.0101 1.9436 21.6523V13.0138C1.95193 12.9481 1.98395 12.8876 2.03365 12.8438C2.08335 12.8 2.14731 12.7759 2.21356 12.7759C2.2798 12.7759 2.34377 12.8 2.39347 12.8438C2.44316 12.8876 2.47518 12.9481 2.48351 13.0138V21.6523C2.48351 21.8669 2.56847 22.0728 2.71982 22.2249C2.87117 22.3771 3.0766 22.4632 3.29121 22.4643H3.50717C3.72253 22.4643 3.92907 22.3787 4.08136 22.2265C4.23364 22.0742 4.31919 21.8676 4.31919 21.6523V14.3096C4.31433 14.2712 4.31769 14.2323 4.32904 14.1954C4.34038 14.1585 4.35946 14.1244 4.38499 14.0954C4.41053 14.0664 4.44194 14.0432 4.47714 14.0273C4.51234 14.0114 4.55052 14.0032 4.58914 14.0032C4.62777 14.0032 4.66595 14.0114 4.70115 14.0273C4.73635 14.0432 4.76776 14.0664 4.7933 14.0954C4.81883 14.1244 4.83791 14.1585 4.84925 14.1954C4.8606 14.2323 4.86395 14.2712 4.8591 14.3096V21.6523C4.8591 22.0108 4.71666 22.3547 4.46313 22.6082C4.20959 22.8618 3.86572 23.0042 3.50717 23.0042Z" fill="#ADD53D"/>
<path d="M4.58697 3.9995C4.19145 3.9995 3.8048 3.88222 3.47594 3.66247C3.14707 3.44273 2.89075 3.1304 2.73939 2.76499C2.58802 2.39957 2.54842 1.99747 2.62558 1.60955C2.70275 1.22162 2.89321 0.865289 3.17289 0.58561C3.45257 0.305932 3.8089 0.115468 4.19683 0.0383047C4.58475 -0.0388585 4.98685 0.00074442 5.35227 0.152105C5.71768 0.303467 6.03001 0.559787 6.24975 0.888655C6.4695 1.21752 6.58678 1.60417 6.58678 1.99969C6.58678 2.53007 6.37609 3.03873 6.00105 3.41377C5.62601 3.78881 5.11735 3.9995 4.58697 3.9995ZM4.58697 0.544104C4.29805 0.544105 4.01562 0.629838 3.77544 0.790446C3.53527 0.951054 3.34815 1.17932 3.23779 1.44633C3.12742 1.71335 3.09876 2.0071 3.15544 2.29042C3.21212 2.57373 3.3516 2.83385 3.5562 3.03785C3.7608 3.24185 4.02134 3.38055 4.30481 3.43639C4.58829 3.49223 4.88197 3.4627 5.14865 3.35154C5.41534 3.24038 5.64305 3.05259 5.80294 2.81194C5.96284 2.5713 6.04773 2.28862 6.04688 1.99969C6.04688 1.80818 6.00909 1.61854 5.93567 1.44166C5.86225 1.26478 5.75464 1.10413 5.61902 0.968906C5.4834 0.833685 5.32243 0.726558 5.14533 0.653662C4.96823 0.580766 4.77848 0.543536 4.58697 0.544104Z" fill="#ADD53D"/>
<path d="M6.96262 13.2859C6.8912 13.2848 6.82309 13.2556 6.77299 13.2047C6.72289 13.1538 6.69482 13.0852 6.69482 13.0138V7.61473C6.70315 7.54901 6.73517 7.48859 6.78487 7.44479C6.83457 7.401 6.89853 7.37683 6.96478 7.37683C7.03102 7.37683 7.09499 7.401 7.14469 7.44479C7.19439 7.48859 7.2264 7.54901 7.23473 7.61473V13.0138C7.23473 13.086 7.20606 13.1552 7.15503 13.2062C7.104 13.2572 7.03479 13.2859 6.96262 13.2859Z" fill="#ADD53D"/>
<path d="M1.56357 13.9338C1.14849 13.9327 0.750798 13.767 0.457695 13.473C0.164593 13.1791 -1.57503e-06 12.781 0 12.3659V7.61473C0.00114242 6.85674 0.302761 6.13012 0.838744 5.59413C1.37473 5.05815 2.10135 4.75653 2.85934 4.75539H6.31474C7.05509 4.75262 7.76756 5.03755 8.30184 5.55007C8.83611 6.06259 9.15041 6.76261 9.1784 7.50243C9.18075 7.57389 9.15488 7.64341 9.10639 7.69594C9.05789 7.74848 8.99067 7.77982 8.91925 7.78318C8.84779 7.78553 8.77828 7.75966 8.72574 7.71117C8.6732 7.66267 8.64186 7.59545 8.6385 7.52403C8.61502 6.92399 8.35973 6.35643 7.92634 5.94077C7.49295 5.5251 6.91524 5.29372 6.31474 5.2953H2.85934C2.24454 5.29644 1.65525 5.54117 1.22051 5.97591C0.785783 6.41064 0.541048 6.99993 0.539906 7.61473V12.3659C0.539904 12.6378 0.647615 12.8986 0.839466 13.0913C1.03132 13.2839 1.29168 13.3927 1.56357 13.3939C1.61364 13.3945 1.66333 13.385 1.70971 13.3661C1.75608 13.3472 1.79821 13.3193 1.83363 13.2839C1.86904 13.2484 1.89701 13.2063 1.91591 13.1599C1.9348 13.1136 1.94424 13.0639 1.94366 13.0138V7.61473C1.95199 7.54902 1.98401 7.48859 2.03371 7.4448C2.0834 7.401 2.14737 7.37684 2.21361 7.37684C2.27986 7.37684 2.34383 7.401 2.39352 7.4448C2.44322 7.48859 2.47524 7.54902 2.48357 7.61473V13.0138C2.48357 13.2578 2.38664 13.4918 2.21411 13.6643C2.04157 13.8369 1.80757 13.9338 1.56357 13.9338Z" fill="#ADD53D"/>
<path d="M6.9627 13.2773H2.21153C2.14581 13.269 2.08539 13.237 2.04159 13.1873C1.9978 13.1376 1.97363 13.0736 1.97363 13.0073C1.97363 12.9411 1.9978 12.8771 2.04159 12.8274C2.08539 12.7777 2.14581 12.7457 2.21153 12.7374H6.9627C7.00102 12.7325 7.03993 12.7359 7.07685 12.7472C7.11377 12.7586 7.14785 12.7777 7.17683 12.8032C7.20581 12.8287 7.22901 12.8601 7.24491 12.8953C7.26081 12.9305 7.26903 12.9687 7.26903 13.0073C7.26903 13.046 7.26081 13.0841 7.24491 13.1193C7.22901 13.1545 7.20581 13.186 7.17683 13.2115C7.14785 13.237 7.11377 13.2561 7.07685 13.2675C7.03993 13.2788 7.00102 13.2822 6.9627 13.2773Z" fill="#ADD53D"/>
<path d="M11.2819 19.9332C11.2335 19.9346 11.1857 19.9227 11.1437 19.8987L8.16337 18.1062C8.13302 18.088 8.10655 18.0641 8.08546 18.0357C8.06437 18.0073 8.04908 17.9751 8.04045 17.9408C8.03183 17.9065 8.03005 17.8708 8.0352 17.8358C8.04036 17.8009 8.05235 17.7672 8.0705 17.7369C8.08866 17.7065 8.11261 17.6801 8.14099 17.659C8.16937 17.6379 8.20163 17.6226 8.23592 17.614C8.27021 17.6054 8.30587 17.6036 8.34085 17.6087C8.37583 17.6139 8.40946 17.6259 8.4398 17.644L11.2819 19.3501L15.3333 16.9227V9.18262H12.7936C12.5381 9.18207 12.2865 9.11924 12.0607 8.99957C11.835 8.87991 11.6417 8.70701 11.4978 8.49586C11.3547 8.70781 11.1617 8.88132 10.9357 9.00108C10.7098 9.12084 10.4578 9.18319 10.2021 9.18262H7.23473V17.0739C7.2264 17.1396 7.19439 17.2 7.14469 17.2438C7.09499 17.2876 7.03102 17.3118 6.96478 17.3118C6.89853 17.3118 6.83457 17.2876 6.78487 17.2438C6.73517 17.2 6.70315 17.1396 6.69482 17.0739V8.9105C6.69482 8.83948 6.72304 8.77137 6.77326 8.72114C6.82348 8.67092 6.89159 8.64271 6.96262 8.64271H10.2021C10.4743 8.64157 10.7352 8.5329 10.9277 8.34037C11.1202 8.14783 11.2289 7.88702 11.23 7.61473C11.2384 7.54901 11.2704 7.48859 11.3201 7.44479C11.3698 7.401 11.4337 7.37683 11.5 7.37683C11.5662 7.37683 11.6302 7.401 11.6799 7.44479C11.7296 7.48859 11.7616 7.54901 11.7699 7.61473C11.7699 7.88662 11.8777 8.14744 12.0695 8.3401C12.2614 8.53276 12.5217 8.64157 12.7936 8.64271H15.6011C15.6725 8.6427 15.7411 8.67078 15.792 8.72088C15.8429 8.77098 15.8721 8.83909 15.8732 8.9105V17.0739C15.8723 17.1204 15.86 17.1659 15.8374 17.2066C15.8148 17.2473 15.7826 17.2818 15.7437 17.3071L11.4244 19.8987C11.381 19.9232 11.3317 19.9352 11.2819 19.9332Z" fill="#ADD53D"/>
<path d="M10.8197 15.8861C10.7845 15.8862 10.7495 15.8795 10.7169 15.8661C10.6843 15.8528 10.6547 15.8331 10.6297 15.8083L9.14815 14.3311C9.101 14.2794 9.0756 14.2115 9.07722 14.1415C9.07884 14.0716 9.10736 14.0049 9.15685 13.9554C9.20634 13.9059 9.27299 13.8774 9.34296 13.8758C9.41293 13.8742 9.48084 13.8996 9.53256 13.9467L10.8283 15.2425L13.476 12.5948C13.5281 12.5531 13.5937 12.5319 13.6604 12.5354C13.727 12.5389 13.7901 12.5667 13.8375 12.6137C13.885 12.6606 13.9135 12.7233 13.9178 12.7899C13.922 12.8565 13.9016 12.9223 13.8605 12.9749L11.0184 15.817C10.9916 15.8413 10.9603 15.86 10.9261 15.8718C10.892 15.8837 10.8558 15.8886 10.8197 15.8861Z" fill="#ADD53D"/>
</svg>
