<svg width="8" height="9" viewBox="0 0 8 9" fill="none" xmlns="http://www.w3.org/2000/svg">
<path d="M3.92493 0C3.92478 0 3.92463 6.19888e-05 3.92453 0.000171661C3.76611 0.171569 3.60394 0.34033 3.44974 0.515029C2.32893 1.78477 1.20976 3.05562 0.0898861 4.32603C-0.0298489 4.46183 -0.0300836 4.53776 0.0891818 4.67312C1.32222 6.07228 2.55502 7.47167 3.78876 8.87039C3.82397 8.91023 3.86295 8.95293 3.91014 8.9767C4.00874 9.02688 4.10195 8.99496 4.19351 8.89108C4.55577 8.4806 4.91755 8.06967 5.27958 7.65897C6.15646 6.66369 7.03334 5.6684 7.91069 4.67312C8.02996 4.53776 8.02972 4.46249 7.90952 4.32625C6.67249 2.92268 5.4357 1.51868 4.19797 0.115551C4.19382 0.110842 4.18956 0.106215 4.18522 0.10166C4.11873 0.0318861 4.02131 0 3.92493 0ZM4.00123 8.51361C3.98104 8.49226 3.96836 8.47972 3.95686 8.46651C2.82149 7.17806 1.68612 5.8896 0.550983 4.60115C0.461769 4.49968 0.462473 4.50012 0.552861 4.39756C1.5152 3.30543 2.47754 2.2133 3.43988 1.12096C3.60742 0.93068 3.77554 0.740765 3.94689 0.546584C3.97455 0.515236 4.02413 0.51354 4.05171 0.544963C5.19529 1.84222 6.33841 3.13992 7.48387 4.43563C7.53529 4.49374 7.51909 4.52477 7.47542 4.5743C6.62695 5.53436 5.78035 6.49597 4.93328 7.45736C4.62533 7.8068 4.31714 8.15601 4.00168 8.51359C4.00156 8.51372 4.00136 8.51373 4.00123 8.51361Z" fill="#ADD53D"/>
</svg>
