<svg xmlns="http://www.w3.org/2000/svg" viewBox="0 0 53.25 53.25"><defs><style>.cls-1{fill:#fff;}</style></defs><g id="Слой_2" data-name="Слой 2"><g id="_0" data-name="0"><path class="cls-1" d="M52.62,53.25H.62A.63.63,0,0,1,.62,52h52a.63.63,0,1,1,0,1.25Z"/><path class="cls-1" d="M52.62,22.25H.62A.61.61,0,0,1,0,21.83a.62.62,0,0,1,.19-.69l26-21a.62.62,0,0,1,.79,0l26,21a.63.63,0,0,1-.4,1.11ZM2.39,21H50.86L26.62,1.43Z"/><path class="cls-1" d="M2.62,53.25A.63.63,0,0,1,2,52.62v-31A.62.62,0,0,1,2.62,21h48a.63.63,0,0,1,.63.62v16a.63.63,0,1,1-1.25,0V22.25H3.25V52.62A.63.63,0,0,1,2.62,53.25Z"/><path class="cls-1" d="M26.62,17.25a4.63,4.63,0,1,1,4.63-4.63A4.63,4.63,0,0,1,26.62,17.25Zm0-8A3.38,3.38,0,1,0,30,12.62,3.37,3.37,0,0,0,26.62,9.25Z"/><path class="cls-1" d="M20.62,53.25h-12A.63.63,0,0,1,8,52.62v-22A.62.62,0,0,1,8.62,30h12a.63.63,0,0,1,.63.62v22A.63.63,0,0,1,20.62,53.25ZM9.25,52H20V31.25H9.25Z"/><circle class="cls-1" cx="17.63" cy="42.62" r="1"/><path class="cls-1" d="M29.29,50.55a.62.62,0,0,1-.44-.18,9.74,9.74,0,0,1,0-13.75l6.43-6.44a.64.64,0,0,1,.89,0l6.37,6.37a.63.63,0,0,1-.89.89l-5.93-5.93-6,6a8.49,8.49,0,0,0,0,12,.61.61,0,0,1,0,.88A.62.62,0,0,1,29.29,50.55Z"/><path class="cls-1" d="M51.37,50.56a.62.62,0,0,1-.5-1,5.92,5.92,0,0,0-.59-7.62l-4.16-4.15L42,41.94a5.92,5.92,0,0,0-.59,7.62.63.63,0,0,1-.13.88.64.64,0,0,1-.88-.14,7.17,7.17,0,0,1,.72-9.24l4.59-4.6a.64.64,0,0,1,.89,0l4.59,4.6a7.17,7.17,0,0,1,.72,9.24A.64.64,0,0,1,51.37,50.56Z"/><path class="cls-1" d="M21.62,31.25h-14a.63.63,0,0,1,0-1.25h14a.63.63,0,1,1,0,1.25Z"/></g></g></svg>