<?xml version="1.0" encoding="UTF-8"?>
<svg id="Capa_2" data-name="Capa 2" xmlns="http://www.w3.org/2000/svg" viewBox="0 0 211.13 211.18">
  <defs>
    <style>
      .cls-1 {
        fill: #000;
        stroke-width: 0px;
      }
    </style>
  </defs>
  <g id="Capa_1-2" data-name="Capa 1">
    <path class="cls-1" d="M211.13,98.12v14.84c-.14.66-.31,1.32-.4,1.99-.47,3.46-.72,6.97-1.41,10.39-5.17,25.84-17.94,47.19-38.77,63.33-25.9,20.06-55.22,26.67-87.25,20.01-24.93-5.18-45.29-18.2-60.91-38.25C4.11,146.96-2.84,120.21,1.04,90.8c2.67-20.2,10.85-38.14,24.14-53.61C41.65,18.02,62.32,6.06,87.24,1.61,90.73.98,94.25.53,97.76,0c5.08,0,10.17,0,15.25,0,3.32.44,6.66.77,9.96,1.34,19.35,3.35,36.59,11.28,51.43,24.18,18.84,16.37,30.64,36.84,35.09,61.46.67,3.69,1.1,7.43,1.64,11.15ZM95.96,91.61c-1.93-.13-3.7-.39-5.47-.34-2.26.07-4.53.25-6.75.62-19.9,3.28-33.6,22.11-30.6,42,3.3,21.91,25.02,36.27,46.43,30.7,17.35-4.51,28.48-18.91,28.47-36.92,0-13.53-.08-27.07-.12-40.6,0-.7,0-1.39,0-1.74,4.97,2.4,9.65,4.98,14.58,6.94,5.02,1.99,10.35,2.86,15.77,2.55v-19.29c-15.48-.3-29.53-11.92-30.55-30.05h-19.3c0,.99,0,1.81,0,2.63,0,26.24,0,52.48-.03,78.72,0,1.44-.11,2.88-.31,4.3-1.19,8.73-8.79,15.21-17.74,15.19-8.79-.02-16.5-6.73-17.67-15.38-1.18-8.76,4.34-17.46,12.85-19.52,3.3-.8,6.85-.51,10.43-.73v-19.1Z"/>
  </g>
</svg>