<svg xmlns="http://www.w3.org/2000/svg" viewBox="0 0 53.25 53.25"><defs><style>.cls-1{fill:#fff;}</style></defs><g id="Слой_2" data-name="Слой 2"><g id="Layer_1" data-name="Layer 1"><path class="cls-1" d="M21.43,43.25a2.84,2.84,0,0,1-2.67-3.82L20.9,33l-4.18-4.08-4.09,4.74a3.82,3.82,0,0,1-3.35,1.31L2.6,34.17A2.88,2.88,0,0,1,0,31.58a2.84,2.84,0,0,1,3.15-3.06l6,.68,2.53-3.1a1.77,1.77,0,0,0,.4-1.23l-.47-8.76L9.75,17.23a1,1,0,0,0-.4.46L7.54,22a2.51,2.51,0,0,1-2.22,1.62A2.68,2.68,0,0,1,4,23.3a2.59,2.59,0,0,1-1.11-3.19l2.14-5a3.84,3.84,0,0,1,1.43-1.71c1.37-.9,3.84-2.51,5-3.1a9.77,9.77,0,0,1,8.77.2l3.79,1.86a1.33,1.33,0,0,0,1.24,0l4.61-2.51a2.6,2.6,0,0,1,3.38.74,2.57,2.57,0,0,1,.37,2,2.52,2.52,0,0,1-1.25,1.62L26.51,17.3a3.89,3.89,0,0,1-3.47.11L20.46,16.2l.45,8.18a1.78,1.78,0,0,0,.52,1.17l4.23,4.24a3.8,3.8,0,0,1,.94,3.92L24.12,41.3a2.84,2.84,0,0,1-2.54,2ZM16.68,27.34a.6.6,0,0,1,.44.18l4.93,4.8a.63.63,0,0,1,.15.65L20,39.82A1.59,1.59,0,0,0,21.51,42a1.58,1.58,0,0,0,1.42-1.09l2.48-7.59a2.58,2.58,0,0,0-.63-2.65l-4.23-4.23a3,3,0,0,1-.89-2l-.5-9.22a.62.62,0,0,1,.89-.6l3.52,1.64a2.6,2.6,0,0,0,2.35-.07l5.77-3.14a1.27,1.27,0,0,0,.44-1.84h0a1.34,1.34,0,0,0-1.75-.34l-4.6,2.51a2.62,2.62,0,0,1-2.39,0L19.6,11.58A8.53,8.53,0,0,0,12,11.36c-1.1.58-3.76,2.32-4.85,3a2.61,2.61,0,0,0-1,1.15L4,20.57a1.33,1.33,0,0,0,.55,1.63,1.26,1.26,0,0,0,.68.16,1.28,1.28,0,0,0,1.13-.83L8.2,17.2a2.24,2.24,0,0,1,.91-1l2.74-1.66a.65.65,0,0,1,.62,0,.63.63,0,0,1,.33.52l.53,9.8a3,3,0,0,1-.68,2.09L9.9,30.26a.61.61,0,0,1-.55.22L3,29.76a1.6,1.6,0,0,0-1.76,1.72,1.63,1.63,0,0,0,1.48,1.44l6.68.76a2.58,2.58,0,0,0,2.27-.88l4.52-5.25a.62.62,0,0,1,.45-.21Z"/><path class="cls-1" d="M15.66,7.94a3.91,3.91,0,0,1-2.64-1,4,4,0,1,1,6.61-3.17,3.9,3.9,0,0,1-1,2.86,3.94,3.94,0,0,1-2.74,1.32Zm0-6.69h-.15a2.72,2.72,0,0,0,.29,5.44h0a2.74,2.74,0,0,0,2.57-2.87A2.73,2.73,0,0,0,15.67,1.25Z"/><path class="cls-1" d="M50.33,12.66a.59.59,0,0,1-.29-.07l-3.42-1.8-3.41,1.8a.63.63,0,0,1-.91-.66L43,8.13l-2.76-2.7A.63.63,0,0,1,40,4.79a.6.6,0,0,1,.51-.42l3.82-.56L46.06.35a.66.66,0,0,1,1.13,0l1.7,3.46,3.82.56a.6.6,0,0,1,.51.42.63.63,0,0,1-.16.64L50.3,8.13l.65,3.8a.63.63,0,0,1-.62.73Zm-3.71-3.2a.78.78,0,0,1,.3.07l2.58,1.36L49,8a.6.6,0,0,1,.18-.55l2.09-2L48.39,5a.64.64,0,0,1-.47-.34L46.62,2,45.33,4.66a.64.64,0,0,1-.47.34L42,5.42l2.09,2a.6.6,0,0,1,.18.55l-.49,2.88,2.58-1.36A.77.77,0,0,1,46.62,9.46Z"/><path class="cls-1" d="M52.62,53.25h-12a.63.63,0,0,1-.62-.63v-36a.62.62,0,0,1,.62-.62h12a.63.63,0,0,1,.63.62v36A.63.63,0,0,1,52.62,53.25ZM41.25,52H52V17.25H41.25Z"/><path class="cls-1" d="M40.62,53.25h-11a.63.63,0,0,1-.62-.63v-16a.62.62,0,0,1,.62-.62h11a.63.63,0,0,1,.63.62v16A.63.63,0,0,1,40.62,53.25ZM30.25,52H40V37.25H30.25Z"/><path class="cls-1" d="M29.62,53.25h-13a.63.63,0,0,1-.62-.63v-10a.62.62,0,0,1,.62-.62h13a.63.63,0,0,1,.63.62v10A.63.63,0,0,1,29.62,53.25ZM17.25,52H29V43.25H17.25Z"/><path class="cls-1" d="M16.62,53.25H.62A.63.63,0,0,1,0,52.62v-6A.62.62,0,0,1,.62,46h16a.63.63,0,0,1,.63.62v6A.63.63,0,0,1,16.62,53.25ZM1.25,52H16V47.25H1.25Z"/></g></g></svg>