<svg width="17" height="19" viewBox="0 0 17 19" fill="none" xmlns="http://www.w3.org/2000/svg">
<g clip-path="url(#clip0_224_2599)">
<path d="M7.08606 18.6093C6.82289 18.5853 6.56021 18.5583 6.29656 18.5386C5.05667 18.4466 3.83323 18.2626 2.64511 17.8856C1.99977 17.6804 1.37572 17.4262 0.855187 16.9812C0.473981 16.6576 0.213716 16.2651 0.205976 15.745C0.198236 15.2086 0.462854 14.8065 0.850833 14.4723C1.36701 14.0283 1.98816 13.7817 2.62479 13.5694C2.80717 13.5082 2.99342 13.4581 3.17967 13.4109C3.35804 13.3701 3.54531 13.3979 3.70396 13.4888C3.8626 13.5796 3.98091 13.7268 4.03518 13.9007C4.08944 14.0747 4.07566 14.2627 3.99658 14.427C3.91751 14.5913 3.77899 14.7198 3.60877 14.7867C3.25272 14.9143 2.88312 15.0107 2.53626 15.1556C2.28364 15.2681 2.04257 15.4047 1.81642 15.5635C1.62776 15.6897 1.6355 15.7484 1.81062 15.889C2.16812 16.178 2.58851 16.3427 3.02003 16.4828C4.01465 16.8069 5.04119 16.9668 6.07983 17.065C7.19069 17.1735 8.30836 17.1954 9.42264 17.1305C10.8555 17.0428 12.2768 16.881 13.6314 16.3696C13.9217 16.2543 14.1995 16.1101 14.4606 15.9391C14.7363 15.7648 14.7286 15.7075 14.4717 15.5153C14.0953 15.2341 13.6585 15.0781 13.2178 14.9336C13.0581 14.8811 12.8927 14.845 12.734 14.7891C12.5648 14.7213 12.4275 14.5924 12.3494 14.4283C12.2713 14.2642 12.2582 14.0768 12.3127 13.9035C12.3672 13.7301 12.4852 13.5836 12.6434 13.493C12.8015 13.4025 12.9881 13.3745 13.166 13.4148C13.9144 13.6074 14.6449 13.8535 15.2781 14.3119C15.4776 14.4562 15.6566 14.6266 15.8103 14.8185C16.2558 15.3786 16.249 16.0778 15.8103 16.6456C15.4174 17.1541 14.8674 17.4387 14.2893 17.6746C13.3701 18.0503 12.407 18.2607 11.4274 18.3898C10.7593 18.4774 10.0849 18.5183 9.41345 18.5824C9.3602 18.5898 9.30739 18.6001 9.25526 18.6132L7.08606 18.6093Z" fill="#273243"/>
<path d="M7.70902 0.153564C11.284 0.153564 13.9888 2.36488 14.5736 5.37751C14.8547 6.82556 14.6176 8.20233 14.012 9.53144C13.4102 10.8514 12.58 12.0211 11.5965 13.0781C10.9459 13.7778 10.2628 14.453 9.54635 15.0853C9.16599 15.4204 8.67558 15.6054 8.16763 15.6054C7.65967 15.6054 7.16926 15.4204 6.7889 15.0853C5.05461 13.5799 3.5143 11.907 2.47566 9.83626C1.97013 8.82499 1.64407 7.76556 1.65327 6.62667C1.66729 4.84202 2.30731 3.3097 3.57139 2.05187C4.83546 0.794037 6.38641 0.174753 7.70902 0.153564ZM8.0999 1.59535C6.75987 1.6281 5.53595 2.10725 4.5573 3.12382C3.35176 4.37587 2.88444 5.87304 3.21389 7.58787C3.39868 8.56158 3.85294 9.42935 4.39137 10.2533C5.29939 11.6436 6.4343 12.8354 7.6708 13.9358C7.98912 14.2189 8.36161 14.218 8.68138 13.9271C9.09113 13.5549 9.49749 13.1773 9.88499 12.782C10.9415 11.7037 11.8931 10.5442 12.5655 9.18182C13.0773 8.14503 13.3574 7.06826 13.1804 5.89711C12.8089 3.43779 10.6658 1.59054 8.0999 1.59535Z" fill="#273243"/>
<path d="M5.27566 6.64066C5.27585 6.07016 5.44604 5.51254 5.76469 5.03835C6.08335 4.56416 6.53614 4.19472 7.06579 3.97677C7.59543 3.75883 8.17812 3.70217 8.74012 3.81397C9.30212 3.92577 9.81817 4.20101 10.223 4.60485C10.6278 5.0087 10.9032 5.523 11.0143 6.08268C11.1254 6.64236 11.0672 7.22226 10.8471 7.74902C10.627 8.27577 10.2549 8.7257 9.77782 9.04187C9.30077 9.35804 8.74022 9.52625 8.16711 9.5252C7.78669 9.52584 7.40989 9.45161 7.05839 9.3068C6.70688 9.16199 6.3876 8.94944 6.11889 8.68138C5.85018 8.41331 5.63736 8.09502 5.49264 7.7448C5.34793 7.39459 5.27419 7.01935 5.27566 6.64066ZM6.72695 6.63296C6.72017 7.41067 7.36939 8.06896 8.15647 8.08245C8.94355 8.09593 9.61502 7.43764 9.62179 6.65029C9.62808 5.87258 8.97838 5.2138 8.19178 5.2008C7.40518 5.1878 6.7313 5.84465 6.72501 6.63296H6.72695Z" fill="#273243"/>
</g>
<defs>
<clipPath id="clip0_224_2599">
<rect width="15.939" height="18.4557" fill="white" transform="translate(0.205811 0.153564)"/>
</clipPath>
</defs>
</svg>
