<?xml version="1.0" encoding="UTF-8"?>
<svg id="Capa_2" data-name="Capa 2" xmlns="http://www.w3.org/2000/svg" viewBox="0 0 211.19 211.12">
  <defs>
    <style>
      .cls-1 {
        fill: #000;
        stroke-width: 0px;
      }
    </style>
  </defs>
  <g id="Capa_1-2" data-name="Capa 1">
    <g>
      <path class="cls-1" d="M211.19,98.12v14.84c-.14.6-.3,1.19-.4,1.79-1.02,5.93-1.58,11.99-3.11,17.79-15.76,59.74-79.12,93.09-137.43,72.46C22.21,188.01-7.07,138.45,1.48,88.24c4.07-23.92,15.06-44.25,33.01-60.65C49.59,13.79,67.28,5.09,87.48,1.59c3.57-.62,7.17-1.07,10.75-1.59,4.95,0,9.89,0,14.84,0,3.39.46,6.8.8,10.16,1.39,16.26,2.82,31.18,8.92,44.46,18.77,22.66,16.8,36.71,39.04,41.86,66.82.68,3.69,1.1,7.43,1.64,11.14ZM105.58,145.17c11.2,0,22.39.03,33.59-.03,2.04-.01,4.14-.15,6.11-.63,9.73-2.41,15.84-10.64,15.88-21.33.04-11.75.03-23.49,0-35.24,0-1.71-.07-3.46-.42-5.12-2.12-10.1-10.35-16.86-20.7-16.88-22.94-.05-45.88-.02-68.83,0-1.03,0-2.07.02-3.07.2-11.11,2.02-17.93,10.19-17.98,21.67-.06,11.81-.03,23.63,0,35.44,0,1.71.09,3.46.45,5.12,2.2,10.13,10.37,16.74,20.78,16.79,11.4.06,22.8.01,34.21.01Z"/>
      <path class="cls-1" d="M91.02,122.63v-34.17c9.85,5.74,19.45,11.33,29.38,17.12-9.93,5.76-19.53,11.33-29.38,17.04Z"/>
    </g>
  </g>
</svg>